<?xml version="1.0" encoding="utf-8"?>
<!-- Generator: Adobe Illustrator 19.0.0, SVG Export Plug-In . SVG Version: 6.00 Build 0)  -->
<svg version="1.1" id="Layer_1" xmlns="http://www.w3.org/2000/svg" xmlns:xlink="http://www.w3.org/1999/xlink" x="0px" y="0px"
	 viewBox="0 0 128 128" style="enable-background:new 0 0 128 128;" xml:space="preserve">
<style type="text/css">
	.st0{fill:#FFFFFF;}
	.st1{fill:none;stroke:#FFFFFF;stroke-width:10;stroke-linecap:round;stroke-miterlimit:10;}
	.st2{fill:none;stroke:#FFFFFF;stroke-width:10;stroke-linecap:round;stroke-linejoin:round;stroke-miterlimit:10;}
</style>
<path id="XMLID_2_" class="st0" d="M63.8,22.4"/>
<path id="XMLID_3_" class="st0" d="M102.4,54.4"/>
<path id="XMLID_14_" class="st0" d="M93.1,66.2"/>
<g id="XMLID_1_">
	<path id="XMLID_10_" class="st0" d="M36.3,69.3v3.4c0,0.5-0.2,0.9-0.5,1.2c-0.3,0.3-0.7,0.5-1.2,0.5h-3.4c-0.5,0-0.9-0.2-1.2-0.5
		c-0.3-0.3-0.5-0.7-0.5-1.2v-3.4c0-0.5,0.2-0.9,0.5-1.2c0.3-0.3,0.7-0.5,1.2-0.5h3.4c0.5,0,0.9,0.2,1.2,0.5
		C36.2,68.5,36.3,68.9,36.3,69.3z"/>
	<path id="XMLID_9_" class="st0" d="M36.3,83.1v3.4c0,0.5-0.2,0.9-0.5,1.2c-0.3,0.3-0.7,0.5-1.2,0.5h-3.4c-0.5,0-0.9-0.2-1.2-0.5
		c-0.3-0.3-0.5-0.7-0.5-1.2v-3.4c0-0.5,0.2-0.9,0.5-1.2c0.3-0.3,0.7-0.5,1.2-0.5h3.4c0.5,0,0.9,0.2,1.2,0.5
		C36.2,82.2,36.3,82.6,36.3,83.1z"/>
	<path id="XMLID_8_" class="st0" d="M36.3,96.8v3.4c0,0.5-0.2,0.9-0.5,1.2c-0.3,0.3-0.7,0.5-1.2,0.5h-3.4c-0.5,0-0.9-0.2-1.2-0.5
		c-0.3-0.3-0.5-0.7-0.5-1.2v-3.4c0-0.5,0.2-0.9,0.5-1.2c0.3-0.3,0.7-0.5,1.2-0.5h3.4c0.5,0,0.9,0.2,1.2,0.5
		C36.2,96,36.3,96.4,36.3,96.8z"/>
	<path id="XMLID_13_" class="st0" d="M98.2,69.3v3.4c0,0.5-0.2,0.9-0.5,1.2c-0.3,0.3-0.7,0.5-1.2,0.5H44.9c-0.5,0-0.9-0.2-1.2-0.5
		c-0.3-0.3-0.5-0.7-0.5-1.2v-3.4c0-0.5,0.2-0.9,0.5-1.2c0.3-0.3,0.7-0.5,1.2-0.5h51.5c0.5,0,0.9,0.2,1.2,0.5
		C98,68.5,98.2,68.9,98.2,69.3z"/>
	<path id="XMLID_12_" class="st0" d="M98.2,83.1v3.4c0,0.5-0.2,0.9-0.5,1.2c-0.3,0.3-0.7,0.5-1.2,0.5H44.9c-0.5,0-0.9-0.2-1.2-0.5
		c-0.3-0.3-0.5-0.7-0.5-1.2v-3.4c0-0.5,0.2-0.9,0.5-1.2c0.3-0.3,0.7-0.5,1.2-0.5h51.5c0.5,0,0.9,0.2,1.2,0.5
		C98,82.2,98.2,82.6,98.2,83.1z"/>
	<path id="XMLID_11_" class="st0" d="M98.2,96.8v3.4c0,0.5-0.2,0.9-0.5,1.2c-0.3,0.3-0.7,0.5-1.2,0.5H44.9c-0.5,0-0.9-0.2-1.2-0.5
		c-0.3-0.3-0.5-0.7-0.5-1.2v-3.4c0-0.5,0.2-0.9,0.5-1.2c0.3-0.3,0.7-0.5,1.2-0.5h51.5c0.5,0,0.9,0.2,1.2,0.5
		C98,96,98.2,96.4,98.2,96.8z"/>
	<path id="XMLID_19_" class="st0" d="M36.3,55.3v3.4c0,0.5-0.2,0.9-0.5,1.2c-0.3,0.3-0.7,0.5-1.2,0.5h-3.4c-0.5,0-0.9-0.2-1.2-0.5
		c-0.3-0.3-0.5-0.7-0.5-1.2v-3.4c0-0.5,0.2-0.9,0.5-1.2c0.3-0.3,0.7-0.5,1.2-0.5h3.4c0.5,0,0.9,0.2,1.2,0.5
		C36.2,54.4,36.3,54.8,36.3,55.3z"/>
	<path id="XMLID_18_" class="st0" d="M98.2,55.3v3.4c0,0.5-0.2,0.9-0.5,1.2c-0.3,0.3-0.7,0.5-1.2,0.5H44.9c-0.5,0-0.9-0.2-1.2-0.5
		c-0.3-0.3-0.5-0.7-0.5-1.2v-3.4c0-0.5,0.2-0.9,0.5-1.2c0.3-0.3,0.7-0.5,1.2-0.5h51.5c0.5,0,0.9,0.2,1.2,0.5
		C98,54.4,98.2,54.8,98.2,55.3z"/>
</g>
<path id="XMLID_17_" class="st0" d="M93.1,53.1"/>
<polyline id="XMLID_20_" class="st1" points="0.8,64.1 64.1,12.2 125.9,62.8 "/>
<polyline id="XMLID_4_" class="st2" points="17.2,50.6 17.2,114.6 111,114.6 111,51.8 "/>
</svg>
