<?xml version="1.0" encoding="utf-8"?>
<!-- Generator: Adobe Illustrator 19.0.0, SVG Export Plug-In . SVG Version: 6.00 Build 0)  -->
<svg version="1.1" xmlns="http://www.w3.org/2000/svg" xmlns:xlink="http://www.w3.org/1999/xlink" x="0px" y="0px"
	 viewBox="0 0 512 512" style="enable-background:new 0 0 512 512;" xml:space="preserve">
<style type="text/css">
	.st0{fill:#38454F;}
	.st1{fill:#E57E25;}
	.st2{fill:#965D32;}
	.st3{fill:#D1D4D1;}
	.st4{fill:#F4E237;}
	.st5{fill:#303030;}
	.st6{fill:#ECF0F1;}
	.st7{fill:#FCD8BE;}
	.st8{fill:#B2805F;}
	.st9{fill:#556080;}
	.st10{fill:#ECEFF0;}
	.st11{fill:#CBB292;}
	.st12{fill:#F5EFCA;}
	.st13{fill:#F18D46;}
	.st14{fill:#ED7161;}
	.st15{fill:#8697CB;}
	.st16{fill:#A5A5A4;}
	.st17{fill:#BDC3C7;}
	.st18{fill:#F3D55B;}
	.st19{fill:#E6E7E8;}
	.st20{fill:#95A5A5;}
	.st21{fill:#8898CB;}
	.st22{fill:#546A79;}
	.st23{fill:#DADEE0;}
	.st24{fill:#FFFFFF;}
	.st25{fill:#0F9BE7;}
	.st26{fill:#FFFFFE;}
	.st27{fill:#EDCD3B;}
	.st28{display:none;}
</style>
<g id="Layer_1">
	<g>
		<g>
			<polygon class="st0" points="-2890,445 -2910.7,383.9 -2964.1,383.9 -2982,445 			"/>
			<path class="st1" d="M-3004.7,137v11.5V397h137.5V137.2c-5.3-43.5-26.4-69.4-70.3-70.3C-2982.7,70.1-3000,98-3004.7,137z"/>
			<rect x="-3004.7" y="373.7" class="st2" width="137.5" height="23.2"/>
			<path class="st3" d="M-3043.2,89.3c-13.8,0.1-40,38.2-40,52.2c0,9.2,0,286.9,0,286.9h78.5c0,0,0-276.7,0-286
				C-3004.7,126.2-3029.6,89.3-3043.2,89.3z"/>
			<rect x="-3083.3" y="410.7" class="st4" width="78.5" height="17.7"/>
			<polygon class="st5" points="-3055.7,410.7 -3062.5,428.4 -3052.2,428.4 -3045.8,410.7 			"/>
			<polygon class="st5" points="-3036.2,410.7 -3042.9,428.4 -3032.7,428.4 -3026.2,410.7 			"/>
			<polygon class="st5" points="-3016.6,410.7 -3023.3,428.4 -3013.1,428.4 -3006.7,410.7 			"/>
			<polygon class="st5" points="-3075.5,410.7 -3082.2,428.4 -3072,428.4 -3065.6,410.7 			"/>
			<rect x="-3083.3" y="172.1" class="st6" width="78.5" height="17.5"/>
			<rect x="-3083.3" y="313.8" class="st6" width="78.5" height="17.5"/>
			<path class="st3" d="M-2827.2,89.3c-13.8,0.1-40,38.2-40,52.2c0,9.2,0,286.9,0,286.9h78.5c0,0,0-276.7,0-286
				C-2788.7,126.2-2813.6,89.3-2827.2,89.3z"/>
			<rect x="-2867.3" y="410.7" class="st4" width="78.5" height="17.7"/>
			<polygon class="st5" points="-2839.7,410.7 -2846.4,428.4 -2836.2,428.4 -2829.8,410.7 			"/>
			<polygon class="st5" points="-2859.5,410.7 -2866.2,428.4 -2856,428.4 -2849.6,410.7 			"/>
			<rect x="-2867.3" y="172.1" class="st6" width="78.5" height="17.5"/>
			<rect x="-2867.3" y="313.8" class="st6" width="78.5" height="17.5"/>
			<rect x="-2993.7" y="295.5" class="st7" width="115.7" height="65.6"/>
			<circle class="st8" cx="-2983.9" cy="305.1" r="3.7"/>
			<circle class="st8" cx="-2983.9" cy="352.8" r="3.7"/>
			<circle class="st8" cx="-2886.3" cy="304.1" r="3.7"/>
			<circle class="st8" cx="-2886.3" cy="351.7" r="3.7"/>
		</g>
		<polygon class="st5" points="-2820.2,410.7 -2826.9,428.4 -2816.6,428.4 -2810.2,410.7 		"/>
		<polygon class="st5" points="-2800.6,410.7 -2807.3,428.4 -2797.1,428.4 -2790.7,410.7 		"/>
	</g>
	<g>
		<g>
			<path class="st9" d="M-2577.6,176.9c2.9-26.9,9.5-53.4,13.7-80.2c25.1-4.1,49.9-9.7,75-13.2c25.6-3.9,51,6.4,70.1,23.1
				c-44.9,45.3-90,90.4-135.3,135.3C-2569.4,224-2579.9,200.9-2577.6,176.9z"/>
			<path class="st9" d="M-2369.5,398.7c4.4-8.5,17.3-3.3,14.3,5.9C-2359.4,413.3-2372.5,407.8-2369.5,398.7z"/>
			<path class="st9" d="M-2317.7,347.1c4.2-8.7,17.1-3.2,14.2,5.9C-2307.6,361.5-2321.2,356.1-2317.7,347.1z"/>
			<path class="st9" d="M-2266,295.4c3.8-8.8,17.6-3.1,14.1,5.8C-2255.9,310.1-2269.5,304.4-2266,295.4z"/>
			<path class="st9" d="M-2335.2,411.5c3.5-11.7,13.7-19.5,21.8-28c20.8-19.7,39.4-41.7,62.4-59c12.4,7.6,25.4,14.1,38.5,20.4
				c-34.5,34.5-68.9,68.9-103.4,103.4C-2321.8,435.7-2328.4,423.5-2335.2,411.5z"/>
		</g>
		<g>
			<path class="st10" d="M-2554.1,241.9c45.3-44.9,90.4-90,135.3-135.3c13.4,14.3,27.1,28.2,40.9,42c-19,18.7-37.7,37.9-56.7,56.7
				c30.9,31.1,61.8,62,92.9,92.9c19.1-19.3,56.3-56.5,56.3-56.5l30.4,30.9c-32.2,46.6-87.8,89.4-133.1,133.1l-26.2-24.7l0,0l0,0
				c15.8-15.2,31.2-30.9,46.7-46.4c-34.3-34.5-68.7-68.9-103.2-103.2c-15.4,15.5-31,30.8-46.4,46.3
				C-2529.3,265.5-2541.6,253.6-2554.1,241.9z"/>
			<path class="st10" d="M-2507.1,288c12.1-12,24.3-24.1,36.3-36.1c6.9,6.9,13.7,13.7,20.6,20.6c-12.1,12-24.1,24.1-36.1,36.2
				C-2493.1,301.8-2500.1,294.9-2507.1,288z"/>
			<path class="st10" d="M-2476,319c12.1-12,24.2-24,36.2-36.1c6.9,6.9,13.7,13.7,20.6,20.6c-12,12-24.1,24.1-36.1,36.2
				C-2462.1,332.7-2469,325.8-2476,319z"/>
			<path class="st10" d="M-2445.1,349.9c12.1-12,24.2-24,36.3-36.1c6.9,6.9,13.7,13.7,20.6,20.6c-12,12.1-24,24.1-36,36.2
				C-2431,363.7-2438,356.7-2445.1,349.9z"/>
			<g>
				<path class="st10" d="M-2388.1,405.7c45.1-43.7,89.4-88,133.1-133.1c8.1,8.1,16.2,16.2,24.6,24.1c-5.7,10.1-12.6,19.4-20.7,27.7
					c-22.9,17.3-41.6,39.3-62.4,59c-8.1,8.5-18.3,16.2-21.8,28c-9.3,6.8-19.3,12.4-28.9,18.7
					C-2371.9,421.9-2379.9,413.8-2388.1,405.7z M-2369.5,398.7c-3,9,10.1,14.6,14.3,5.9C-2352.2,395.5-2365.1,390.2-2369.5,398.7z
					 M-2317.7,347.1c-3.5,9,10.2,14.4,14.2,5.9C-2300.6,343.9-2313.5,338.4-2317.7,347.1z M-2266,295.4c-3.4,8.9,10.2,14.6,14.1,5.8
					C-2248.4,292.4-2262.3,286.7-2266,295.4z"/>
			</g>
		</g>
		<g>
			<polygon class="st11" points="-2517.2,277.6 -2470.8,231.3 -2367.6,334.5 -2414.3,381 -2424.2,370.7 -2388.2,334.5 
				-2408.8,313.9 -2445.1,349.9 -2455.3,339.7 -2419.2,303.5 -2439.8,282.9 -2476,319 -2486.3,308.7 -2450.2,272.5 -2470.8,251.9 
				-2507.1,288 			"/>
			<g>
				<path class="st11" d="M-2434.6,205.4l56.7-56.7l92.6,93.1l-56.3,56.5L-2434.6,205.4z M-2410.5,202.5c-2.9,8.7,9.6,13.7,13.8,5.7
					C-2394.7,199.2-2405.6,194.6-2410.5,202.5z M-2389.5,223.3c-3.9,8.6,9.6,13.5,13.5,5.6C-2373.4,220.4-2386,214.5-2389.5,223.3z
					 M-2369.2,243.8c-2.6,8.9,9.1,13.7,13.7,5.7C-2352.7,240.9-2365,235.6-2369.2,243.8z M-2348.5,264.5c-3.2,8.3,10,14.2,13.4,5.6
					C-2331.5,261.5-2344.7,256.3-2348.5,264.5z"/>
			</g>
		</g>
		<g>
			<path class="st12" d="M-2410.5,202.5c4.9-8,15.9-3.4,13.8,5.7C-2401,216.2-2413.4,211.2-2410.5,202.5z"/>
			<path class="st12" d="M-2389.5,223.3c3.6-8.8,16.1-2.9,13.5,5.6C-2379.9,236.8-2393.4,231.9-2389.5,223.3z"/>
			<path class="st12" d="M-2369.2,243.8c4.1-8.2,16.4-3,13.7,5.7C-2360,257.5-2371.7,252.8-2369.2,243.8z"/>
			<path class="st12" d="M-2348.5,264.5c3.8-8.2,17-3,13.4,5.6C-2338.5,278.7-2351.6,272.9-2348.5,264.5z"/>
		</g>
		<g>
			<polygon class="st3" points="-2398.2,396.1 -2264.6,262.8 -2255,272.6 -2388.1,405.7 			"/>
		</g>
	</g>
	<g>
		<g>
			<g>
				<path class="st9" d="M-1955.7,78.6c45.1,0,90.2,0,135.3,0c0,24.6,0,49.2,0,73.8c-20.5,0-41,0-61.6,0c-4.1,0-8.2,0-12.2,0
					c-20.5,0-41,0-61.6,0C-1955.7,127.8-1955.7,103.2-1955.7,78.6z M-1924.2,97.9c-12.6,3.6-17.7,21.6-7.4,30.5
					c8.9,10.1,26.7,5.2,30.4-7.4C-1896.3,107.8-1910.9,93.1-1924.2,97.9z M-1862.8,98c-12.6,3.7-17.4,21.5-7.3,30.4
					c8.9,10.2,26.6,5.3,30.4-7.2C-1834.7,107.8-1849.5,93-1862.8,98z"/>
			</g>
			<path class="st9" d="M-2048,115.5c-0.5-14.3,18.4-24.4,29.5-14.6c8,5.2,7.4,15.2,6.7,23.5c17.7,17.8,35.5,35.6,53.3,53.3
				c10.4-2,23.1,0.8,26.6,12.2c4.1,10.1-4.1,18.3-11.3,24.1c-0.1,10.2-0.1,20.5-0.1,30.7c-4.1,0-8.2,0-12.2,0
				c0-10.2,0-20.4-0.1-30.7c-9.4-6.2-14.3-16.3-11.5-27.5c-18.6-18.5-36.9-37.4-55.9-55.5c-0.3,19.4-0.2,38.9-0.2,58.3
				c9.3,4.9,19,12.9,18.3,24.5c0.9,4.8-4.8,6.8-8.6,6.2c-4.6-6.5-5.7-18.6-15.9-18.2c-10.2-0.4-11.3,11.7-15.9,18.1
				c-3.8,0.7-9.7-1.4-8.5-6.2c-0.6-11.6,8.9-19.5,18.2-24.4c0.1-18.5,0.1-36.9-0.1-55.4C-2041.1,128.9-2048.5,123.9-2048,115.5z"/>
			<path class="st9" d="M-1785.3,121c10.4,10,20.5,20.2,30.7,30.5c3,3,6,6,9,9c10.2,10.1,20.3,20.2,30.5,30.3
				c-11.3,12.4-26,23.7-43.7,23c-4.1-0.3-8.1-0.8-12.2-1.5c-23.4-5.4-40.1-30.1-36.5-53.9C-1806.1,143.2-1795.5,131.5-1785.3,121z"
				/>
			<g>
				<path class="st9" d="M-1857.2,170.9c12.3,0,24.6,0,36.9,0c0,12.3,0,24.6,0,36.9c-4.1,0-8.2,0-12.3,0c-4.1,0-8.2,0-12.2,0
					c-4.1,0-8.2,0-12.3,0C-1857.2,195.5-1857.2,183.2-1857.2,170.9z M-1844.9,183.2c0,4.1,0,8.2,0,12.3c4.1,0,8.2,0,12.3,0
					c0-4.1,0-8.2,0-12.3C-1836.7,183.2-1840.8,183.2-1844.9,183.2z"/>
			</g>
			<g>
				<path class="st9" d="M-2014.3,335.1c5.6-2.7,10.1-7.3,15.5-10.3c5.5,3,10.1,7.8,15.9,10.2c5.7,0.6,11.4-0.1,17.2,0.5
					c4,4.6,4.1,11.5,7.1,16.7c4.5,4.6,11.7,6.6,14.9,12.2c-1.8,5.4-4.5,10.5-6.7,15.8c1.6,6,7.9,11.2,6.6,17.7
					c-4.2,4.6-10.9,5.5-16,8.8c-2.5,6-0.2,14.3-5.7,18.8c-6,1-11.9-1.8-17.9-2.1c-6.4,3.5-9.5,13.9-18.1,11.6
					c-4.5-3.5-7.6-8.6-12.5-11.6c-5.9,0.4-11.7,2.9-17.7,2.1c-5.6-4.4-3.2-12.7-5.7-18.8c-5.3-4.1-15.2-3.9-16.7-11.5
					c1.7-5.5,5.4-10.1,7.7-15.3c-2-6-8.6-11-7.2-17.7c4.1-4.7,10.8-5.6,15.5-9.5c1.9-5.9,2.9-12.1,5.7-17.7
					C-2026.4,334.9-2020.3,335.6-2014.3,335.1z M-2006.9,363c-12.1,5.4-14.7,24.2-3.7,32c11.2,10.1,32.3,0.5,30.5-15
					C-1979.3,366.6-1995.1,356.9-2006.9,363z"/>
			</g>
			<g>
				<path class="st9" d="M-1891.4,335c5.6-2.8,10.2-7.2,15.7-10.1c6.8,3,11.8,11,19.8,10.4c4.7,0.3,9.7-0.7,14.2,0.7
					c2.3,5.3,3.4,11,6,16.1c4.5,4,9.9,6.7,14.4,10.6c0.4,6.2-4.3,11.7-6.2,17.4c1.9,5.2,5.4,9.8,7.1,15c-1.4,7.6-11.4,7.4-16.7,11.5
					c-2.4,6.1-0.2,14.3-5.6,18.9c-6,0.6-11.7-1.7-17.6-2.1c-5.1,2.6-8.1,8.1-12.6,11.5c-8.6,2.3-11.7-8.2-18.1-11.6
					c-6,0.4-11.8,3-17.8,2.1c-5.5-4.4-3.2-12.7-5.6-18.7c-5.2-4.2-15.6-4-16.7-11.9c1.9-5.1,5.1-9.6,6.9-14.7
					c-2.2-5.8-5.1-11.3-6.6-17.3c4.8-3.9,10.4-6.7,15-10.7c2.9-5.3,3.1-12.1,7-16.8C-1903,334.9-1897.1,335.6-1891.4,335z
					 M-1883.6,362.9c-12.2,5.3-15,24.1-4,32c11.2,10.2,32.4,0.5,30.6-15C-1856.3,366.6-1871.9,357.1-1883.6,362.9z"/>
			</g>
			<g>
				<path class="st9" d="M-1768.2,335c5.6-2.6,10.2-7.1,15.6-10.2c5.5,3,10,7.5,15.6,10.2c6,0.6,12-0.2,18,0.2
					c2.9,5.5,3.8,11.7,5.7,17.6c4.6,3.9,11.4,4.8,15.4,9.4c1.6,6.6-5.2,11.8-7.1,17.8c2,6,8.6,11.1,7.1,17.9
					c-4.1,4.6-10.9,5.5-16,8.8c-2.5,6-0.3,14.2-5.5,18.8c-6.1,1.1-12-1.7-18-2c-4.7,3.1-7.9,8-12.3,11.5c-6.2,2.5-9.7-4-13.5-7.4
					c-5.4-8.3-14.9-0.1-22.5-1.9c-5.6-4.4-3.3-12.8-5.8-18.9c-5.1-3.2-11.8-4.2-16-8.8c-1.7-6.5,5-11.7,6.5-17.7
					c-2.4-5.4-5.1-10.6-7.1-16.1c4.4-4.7,10.3-7.6,15.2-11.8c2.6-5.2,3.8-11.1,6.2-16.4C-1780.6,334.7-1774.4,335.7-1768.2,335z
					 M-1760.7,362.9c-12.2,5.4-14.9,24.2-3.8,32c11.3,10,32.4,0.4,30.5-15.1C-1733.3,366.5-1749,357-1760.7,362.9z"/>
			</g>
		</g>
		<g>
			<path class="st13" d="M-1924.2,97.9c13.3-4.8,27.9,9.9,22.9,23.1c-3.7,12.6-21.5,17.5-30.4,7.4
				C-1941.8,119.5-1936.8,101.5-1924.2,97.9z"/>
		</g>
		<g>
			<path class="st14" d="M-1862.8,98c13.3-5,28.1,9.8,23.1,23.2c-3.8,12.5-21.5,17.4-30.4,7.2C-1880.2,119.5-1875.4,101.7-1862.8,98
				z"/>
		</g>
		<g>
			<g>
				<path class="st15" d="M-1737.3,109.3c7.6-13.2,27.7-15.4,38.2-4.4c11.1,10.3,8.9,30.5-4.2,38.1c-7.8,5.8-17.8,2.9-26.5,1.5
					c-5.3,5.2-10.6,10.6-15.8,15.9c-3-3-6-6-9-9c5.4-5.2,10.7-10.5,15.9-15.9C-1740.1,127-1743,117.2-1737.3,109.3z M-1720.4,110.9
					c-8.2,2.3-11.3,14.2-4.6,19.8c6.1,7.4,19.3,3.1,20.5-6.2C-1702.6,115.8-1712,107.7-1720.4,110.9z"/>
			</g>
		</g>
		<g>
			<path class="st16" d="M-1894.1,152.4c4.1,0,8.2,0,12.2,0c0.1,30.8,0,61.5,0,92.3c-4.1,0-8.2,0-12.3,0
				C-1894.2,213.9-1894.2,183.2-1894.1,152.4z"/>
			<path class="st16" d="M-1844.9,207.8c4.1,0,8.2,0,12.2,0c0,12.3,0,24.6,0,36.9c-4.1,0-8.2,0-12.3,0
				C-1844.9,232.4-1844.9,220.1-1844.9,207.8z"/>
			<path class="st16" d="M-1771,212.3c4,0.7,8.1,1.2,12.2,1.5c0,10.3,0,20.7,0,31c-4.1,0-8.2-0.1-12.3-0.1
				C-1771.1,233.9-1771.1,223.1-1771,212.3z"/>
		</g>
		<g>
			<path class="st6" d="M-2001,244.8c15.1-0.2,30.2-0.2,45.4-0.2c4.1,0,8.2,0,12.2,0c16.4,0,32.8,0.1,49.2,0c4.1,0,8.2,0,12.3,0
				c12.3,0,24.6,0,36.9,0c4.1,0,8.2,0,12.3,0c20.5,0,41,0,61.5,0c4.1,0,8.2,0,12.3,0.1c2.1,0,6.3,0.1,8.3,0.1
				c8.6,12,17.4,23.9,25.2,36.5c-29.6,0.4-59.2,0.1-88.7,0.2c-8.3,0-16.6,0-24.9,0c-8.1,0-16.2,0-24.3,0c-8.3,0-16.6,0-24.9,0
				c-8.1,0-16.2,0-24.3,0c-8.3,0-16.6,0-24.9,0c-29.6-0.1-59.2,0.1-88.8-0.2C-2018.4,268.8-2009.5,257-2001,244.8z"/>
		</g>
		<g>
			<path class="st17" d="M-2026.2,281.4c29.6,0.3,59.2,0.1,88.8,0.2c0.1,8.2,0.2,16.3,0.3,24.5c8,0,16.1,0,24.1-0.1
				c0.2-8.2,0.3-16.3,0.5-24.4c8.1,0,16.2,0,24.3,0c0.2,8.2,0.3,16.4,0.5,24.6c8-0.1,16-0.1,24.1-0.2c0.1-8.2,0.2-16.3,0.3-24.5
				c8.1,0,16.2,0,24.3,0c0.2,8.2,0.3,16.4,0.5,24.6c8,0,16,0,24,0c0.2-8.2,0.3-16.4,0.4-24.6c29.6-0.1,59.2,0.2,88.7-0.2
				c7,10.6,14.5,20.9,21.9,31.1c-3.1,13.5-6.8,26.8-9.9,40.3c-1.8-5.9-2.8-12.1-5.7-17.6c-6-0.3-12,0.4-18-0.2
				c-5.6-2.7-10.2-7.2-15.6-10.2c-5.4,3-10,7.5-15.6,10.2c-6.1,0.7-12.4-0.3-18.4,0.9c-2.4,5.3-3.5,11.2-6.2,16.4
				c-4.9,4.2-10.8,7.1-15.2,11.8c2,5.5,4.7,10.7,7.1,16.1c-8.8-0.2-17.7-0.2-26.5,0c1.9-5.8,6.6-11.2,6.2-17.4
				c-4.5-3.9-9.9-6.6-14.4-10.6c-2.6-5.2-3.7-10.9-6-16.1c-4.6-1.4-9.5-0.4-14.2-0.7c-8.1,0.6-13-7.4-19.8-10.4
				c-5.5,3-10.2,7.3-15.7,10.1c-5.8,0.6-11.6-0.1-17.3,0.4c-3.8,4.7-4.1,11.5-7,16.8c-4.7,4-10.3,6.8-15,10.7
				c1.5,6,4.4,11.6,6.6,17.3c-8.8-0.2-17.6-0.3-26.4,0c2.2-5.3,5-10.4,6.7-15.8c-3.2-5.7-10.4-7.7-14.9-12.2
				c-3.1-5.2-3.2-12.2-7.1-16.7c-5.7-0.6-11.5,0.1-17.2-0.5c-5.8-2.4-10.3-7.2-15.9-10.2c-5.4,3-9.9,7.6-15.5,10.3
				c-6,0.5-12-0.3-18.1,0c-2.8,5.6-3.8,11.8-5.7,17.7c-3.1-13.5-6.8-26.9-9.9-40.4C-2040.6,302.2-2033.1,292-2026.2,281.4z"/>
		</g>
		<g>
			<path class="st3" d="M-1937.3,281.6c8.3,0,16.6,0,24.9,0c-0.2,8.2-0.3,16.3-0.5,24.4c-8.1,0-16.1,0.1-24.1,0.1
				C-1937.2,298-1937.2,289.8-1937.3,281.6z"/>
			<path class="st3" d="M-1888.2,281.6c8.3,0,16.6,0,24.9,0c-0.1,8.2-0.2,16.3-0.3,24.5c-8,0.1-16,0.1-24.1,0.2
				C-1887.8,298-1888,289.8-1888.2,281.6z"/>
			<path class="st3" d="M-1839,281.6c8.3,0,16.6,0,24.9,0c-0.2,8.2-0.3,16.4-0.4,24.6c-8,0-16,0-24,0
				C-1838.6,298-1838.8,289.8-1839,281.6z"/>
		</g>
		<g>
			<path class="st11" d="M-2006.9,363c11.8-6,27.6,3.6,26.9,17c1.8,15.5-19.3,25-30.5,15C-2021.6,387.1-2018.9,368.4-2006.9,363z"/>
			<path class="st11" d="M-1883.6,362.9c11.8-5.8,27.3,3.8,26.6,17c1.8,15.5-19.4,25.2-30.6,15
				C-1898.6,387-1895.8,368.2-1883.6,362.9z"/>
			<path class="st11" d="M-1760.7,362.9c11.8-5.9,27.4,3.6,26.8,16.9c1.8,15.5-19.3,25.1-30.5,15.1
				C-1775.6,387.1-1772.9,368.3-1760.7,362.9z"/>
		</g>
	</g>
	<g>
		<g>
			<path class="st18" d="M-1436.3,79.2c4.9-5.1,9.8-10,15-14.9c25.5,25.1,50.5,50.7,76.1,75.7c-1.9,6.8-9.1,10.3-13.3,15.6
				C-1385.5,131.2-1410,104.3-1436.3,79.2z"/>
			<path class="st18" d="M-1456.5,99.8c2.9-3.3,6-6.4,9.2-9.4c25.6,25.7,51.2,51.4,77,77c-3.1,3.1-6.1,6.2-9.3,9.2
				C-1405.4,151.1-1431,125.5-1456.5,99.8z"/>
			<path class="st18" d="M-1477.3,120.4c2.9-3.2,6-6.3,9.3-9.1c25.7,25.6,51.5,51,76.8,77l-2.2,2.2c-1.7,1.7-5.2,5.2-7,6.9
				C-1426,171.7-1451.7,146.1-1477.3,120.4z"/>
			<path class="st18" d="M-1498,140.9c3.1-3.2,6.3-6.4,9.5-9.5c25.2,26.2,51.6,51.3,76.8,77.5c-1.7,1.9-5.1,5.5-6.8,7.3
				c-8-2.4-13.1-9.2-18.8-14.8C-1457.5,181.2-1477.6,160.8-1498,140.9z"/>
			<path class="st18" d="M-1518.1,161.5c2.8-3.3,5.9-6.4,9.1-9.3c25.6,25.6,51.2,51.2,76.8,76.8c-2.8,3.3-5.9,6.3-9.1,9.2
				C-1467.1,212.9-1492.6,187.1-1518.1,161.5z"/>
			<path class="st18" d="M-1544.6,187.9c4.6-5.3,9.6-10.2,14.9-14.8c25.8,25.4,51.4,51,76.7,76.8c-4.7,5.1-9.6,10-14.7,14.7
				C-1493.4,239-1518.8,213.3-1544.6,187.9z"/>
			<path class="st18" d="M-1220.8,265.5c26.6,24.8,51.6,51.1,77.4,76.8c-4.8,5.1-9.8,10.1-14.9,14.9c-25.3-25.8-50.9-51.3-76.6-76.7
				C-1231.1,274.8-1225.6,270.4-1220.8,265.5z"/>
			<path class="st18" d="M-1256,300.6c3.2-3.2,6.4-6.3,9.7-9.3c25.3,26,51.1,51.4,76.8,76.9c-2.9,3.4-6.1,6.4-9.6,9.1
				C-1204.8,351.8-1230.2,326-1256,300.6z"/>
			<path class="st18" d="M-1272.1,316.8c1.2-1.2,3.7-3.7,4.9-4.9c25.5,25.7,51.2,51.1,76.7,76.8c-2.6,3.6-5.7,6.8-9.2,9.6
				c-25.6-25.7-51-51.6-77.1-76.8C-1275.6,320.3-1273.3,318-1272.1,316.8z"/>
			<path class="st18" d="M-1295.2,339.7c1.8-1.7,5.5-5.3,7.3-7.1c26,25.4,51.3,51.5,77.3,76.8c-3.2,3.2-6.3,6.4-9.5,9.5
				c-19.5-20-39.4-39.7-59.2-59.4C-1285.1,353.4-1292.4,348.1-1295.2,339.7z"/>
			<path class="st18" d="M-1307.8,353c25.2,25.9,51,51.3,76.6,76.8c-2.8,3.5-6,6.5-9.6,9.2c-25.7-25.5-51-51.4-76.9-76.7
				C-1314.6,359-1311.3,355.9-1307.8,353z"/>
			<path class="st18" d="M-1343.7,388.7c4.8-5.3,9.8-10.3,15-15.2c25.2,26,51,51.2,76.5,76.9c-4.8,4.7-9,12.3-15.4,14.4
				C-1292.9,439.4-1318.3,414-1343.7,388.7z"/>
		</g>
		<g>
			<g>
				<path class="st15" d="M-1203.3,113.8c-8.4-15.8-0.4-38.3,17.8-42.3c20.3-6.4,41.9,14.4,35.7,34.9c-4,18.6-26.7,27.4-43,18.4
					c-3.8,3.4-8,6.8-10.1,11.6c-3.7-3.7-7.4-7.5-11-11.3C-1210.2,121.4-1206.7,117.7-1203.3,113.8z M-1183.8,86.1
					c-9.7,3.9-11.5,18.5-2.9,24.5c7.8,6.5,21.2,1.6,22.9-8.4C-1161,91.3-1173.7,81.1-1183.8,86.1z"/>
			</g>
		</g>
		<g>
			<path class="st11" d="M-1447.4,90.4c3.6-3.8,7.3-7.6,11.1-11.2c26.3,25.1,50.8,52,77.7,76.4l0.1,0.1c-3.9,4-7.9,7.8-11.9,11.7
				C-1396.1,141.8-1421.8,116.1-1447.4,90.4z"/>
			<path class="st11" d="M-1468,111.3c3.5-4.1,7.3-8,11.4-11.5c25.6,25.7,51.1,51.4,76.9,76.8l-0.9,0.9c-3.5,3.6-7.1,7.2-10.6,10.7
				C-1416.5,162.3-1442.3,136.9-1468,111.3z"/>
			<path class="st11" d="M-1488.5,131.4c3.7-3.7,7.4-7.4,11.2-11c25.6,25.7,51.3,51.3,76.9,77c-3.8,3.8-7.6,7.6-11.4,11.5
				C-1436.9,182.7-1463.3,157.6-1488.5,131.4z"/>
			<path class="st11" d="M-1509,152.1c3.6-3.8,7.2-7.6,11-11.2c20.5,20,40.6,40.3,60.7,60.6c5.7,5.5,10.9,12.4,18.8,14.8
				c-3.2,3.3-6.4,6.6-9.7,9.7c-1,0.8-3,2.3-4,3C-1457.8,203.3-1483.4,177.7-1509,152.1z"/>
			<path class="st11" d="M-1529.7,173c3.6-4.2,7.5-8,11.6-11.6c25.5,25.7,51,51.4,76.8,76.7c-3.8,4-7.6,8-11.7,11.7
				C-1478.3,224-1504,198.4-1529.7,173z"/>
			<path class="st11" d="M-1246.3,291.3c3.3-4,7.1-7.7,11.3-10.8c25.7,25.4,51.3,50.8,76.6,76.7c-3.6,3.8-7.3,7.4-11.1,11
				C-1195.2,342.6-1221,317.2-1246.3,291.3z"/>
			<path class="st11" d="M-1259.3,303.9c0.8-0.8,2.5-2.5,3.3-3.3c25.8,25.4,51.2,51.2,76.9,76.7c-3.3,4.3-7.1,8.1-11.4,11.4
				c-25.6-25.6-51.2-51.1-76.7-76.8C-1264.6,309.2-1262,306.6-1259.3,303.9z"/>
			<path class="st11" d="M-1287.8,332.6c3.7-3.7,7.4-7.5,11.1-11.2c26.2,25.2,51.5,51.1,77.1,76.8c-3.6,3.8-7.2,7.6-10.9,11.2
				C-1236.6,384.1-1261.8,358-1287.8,332.6z"/>
			<path class="st11" d="M-1307.7,351.9c4.1-4.1,8.4-8.1,12.5-12.2c2.7,8.4,10.1,13.8,15.9,19.9c19.8,19.7,39.7,39.4,59.2,59.4
				c-3.6,3.7-7.4,7.3-11.2,10.8c-25.6-25.5-51.4-50.8-76.6-76.8L-1307.7,351.9z"/>
			<path class="st11" d="M-1328.6,373.5c3.5-3.9,7.2-7.5,11-11.2c25.9,25.3,51.2,51.1,76.9,76.7c-3.3,4.3-7.2,8.1-11.4,11.4
				C-1277.6,424.7-1303.5,399.5-1328.6,373.5z"/>
		</g>
		<g>
			<path class="st9" d="M-1259.4,158.2c-12.9-21.8-8.2-51.4,9.4-69.2c12.1,11.8,24.1,24,36.1,35.9c3.7,3.8,7.3,7.6,11,11.3
				c11.9,11.5,23.5,23.3,35.2,35c-18.1,18.1-48.3,22.4-70.3,8.9C-1246.8,174.7-1254.2,167.2-1259.4,158.2z"/>
			<path class="st9" d="M-1512.6,330c14.1-6.5,27.5-15.1,42.2-20.1c2.9,3.3,5.8,6.7,8.8,9.9c8,9.3,17.7,17.1,25.5,26.7
				c3,3.7,6.4,7.1,10.1,10.1c9.8,7.9,17.7,17.8,27.3,25.9c3.2,2.8,6.3,5.7,9.4,8.7c-6.3,14.1-13.7,27.7-20.5,41.5
				C-1444.2,398.5-1478.4,364.2-1512.6,330z"/>
		</g>
		<g>
			<path class="st19" d="M-1290.7,159.8c10.3-3.2,21.2,2.3,31.3-1.5c5.2,9,12.6,16.5,21.5,22c-3.1,9.9,2.6,20.1,0.1,30.1
				c-2.1,10.6-8.7,19.6-16.2,27.1c-18.1,18.5-36.6,36.5-54.8,54.8c-3.5,3.3-6.9,6.7-10.1,10.2c-26.6,26.7-53.5,53.1-79.9,80.1
				c-9.6-8.1-17.5-18-27.3-25.9c18.9-18.4,37.3-37.3,56.1-55.8c-2.5-4.4-6-8-10.5-10.3c-18.5,18.8-37.3,37.2-55.7,56
				c-7.8-9.6-17.4-17.4-25.5-26.7c29-25.8,55.4-54.5,83.1-81.7c3.4-3.3,6.8-6.8,10.1-10.2c16.4-16.2,32.9-32.3,48.9-48.8
				C-1311.4,170.8-1302.6,161.8-1290.7,159.8z"/>
		</g>
		<g>
			<path class="st20" d="M-1391.2,188.3c3.5-3.6,7.1-7.1,10.6-10.7c6.1,16.6-6.3,39.3,12.2,50.3c-3.3,3.4-6.7,6.8-10.1,10.2
				c-4-3.3-7.1-8-11.8-10.3c-12.6-1.2-25.6,1.8-37.9-1.8c3.3-3.2,6.4-6.5,9.7-9.7c6.9-5.7,16.6-2.4,24.8-3.2
				c0.3-7.5,0.2-15,0.3-22.5L-1391.2,188.3z"/>
			<path class="st20" d="M-1380.5,290.5c4.5,2.4,8,5.9,10.5,10.3c-18.8,18.5-37.3,37.4-56.1,55.8c-3.7-3-7.1-6.4-10.1-10.1
				C-1417.7,327.7-1399,309.2-1380.5,290.5z"/>
			<path class="st20" d="M-1319,302.4c3.3-3.5,6.7-6.9,10.1-10.2c3.4,3.3,6.8,6.6,10.2,9.8c13,1,26.5-1.9,39.3,1.8
				c-2.7,2.7-5.3,5.3-7.9,8c-1.2,1.2-3.7,3.7-4.9,4.9c-7.4-0.1-14.9-0.2-22.3-0.1c0,7.6-0.1,15.3-0.7,22.9
				c-4.2,4.1-8.4,8.1-12.5,12.2c-2.9-12.8-0.7-26.1-1.4-39.1C-1312.4,309.3-1315.7,305.8-1319,302.4z"/>
		</g>
	</g>
	<g>
		<path class="st0" d="M-813.7,48.1c4.2-3,10.4-1.9,13.5,2.2c17.8,16.7,26.7,40,29.6,63.8c-11.9-5.3-24-12.1-37.4-11.9
			c-13.5-0.4-25.7,6.2-37.8,11.3C-842.8,89-833.1,64.5-813.7,48.1z"/>
		<g>
			<path class="st0" d="M-849.2,143.4c12-9.9,24.3-22.5,40.7-23.6c16.2,1.7,28.6,13.5,40.5,23.4c5.3,6.1,4.3,15.6,5.5,23.3
				c-1,36.9-3.2,75.1,10.2,110.3c8.5,23.8,25,45.5,47.9,56.8c18.3,9.2,39.1,10,59.1,10.5c6.9,9.3,12.7,19.4,17.5,30
				c-33.4,3.7-67.1,4.8-100.6,1.7c-1.8-7.5-3.7-15-5.6-22.5c-4.4-0.3-8.7-0.6-13-0.9c-1.8,29.6-0.1,59.3-1,89
				c-4.7,0.3-9.4,0.7-14.1,1.2c-3.1,7.7-6.4,15.4-9.8,23.1c-24.3,0.2-48.6,0.1-72.9,0.1c-3.4-7.5-6.7-15.2-9.7-22.9
				c-4.5-0.6-9-1.1-13.6-1.6c-1-29.6,0.7-59.3-1.1-88.8c-4.4,0.2-8.7,0.6-13,0.9c-1.9,7.5-3.8,15-5.6,22.5
				c-33.5,3.1-67.3,1.9-100.7-1.7c4.8-10.6,10.6-20.7,17.4-30.1c21.9-0.4,45.2-1.5,64.4-13.2c26.3-15.2,41.8-43.7,48.3-72.5
				c7.9-31.3,5-63.8,4.8-95.7C-852.5,156.2-853.6,148.4-849.2,143.4z M-846.8,290.1c-5.1,1.2-6.9,4.3-5.4,9.4
				c6.7,5.4,15.8,4.6,23.8,5.2c17.5,0.1,35.1,0.7,52.5-0.8c6.1-0.3,14.7-3.1,12.2-10.9c-9.4-6.5-21.5-4.6-32.2-5.2
				C-812.8,288.2-830.1,286.3-846.8,290.1z M-846.8,330.4c-5.2,1.2-6.9,4.3-5.3,9.4c6.5,5.7,15.7,4.6,23.7,5.2
				c17.5,0.1,35.1,0.7,52.5-0.8c6.1-0.3,14.6-3.1,12.3-10.9c-9.6-6.2-21.5-4.6-32.3-5.2C-812.8,328.5-830.1,326.6-846.8,330.4z
				 M-846.8,370.7c-4.9,1.3-6.7,4.5-5.5,9.5c6.9,5.1,15.8,4.6,24,5.1c17.5,0.1,35.1,0.8,52.5-0.8c6-0.4,14.9-3,12.2-10.9
				c-9.4-6.5-21.5-4.6-32.2-5.3C-812.8,368.8-830.1,367-846.8,370.7z M-843.8,406.5c-2.5,9.6,0.2,19.4,4,28.3
				c6.9-5.7,12.9-12.7,20.8-17.2c7.3-1.6,15-1.6,22.3,0c7.9,4.4,13.8,11.5,20.7,17.1c3.5-9.6,10.2-25.7-1.2-32.1
				c-15.4-3.1-31.4-2.3-47.1-1.9C-831.1,401.5-839,400.7-843.8,406.5z"/>
		</g>
		<path class="st0" d="M-989.8,392.7c34.3,1.4,68.7-1.7,102.9,1.6c1.9,7.4,3.8,14.8,5.8,22.1c-36-0.4-72-4.7-107.9-8
			C-989.2,403.1-989.5,397.9-989.8,392.7z"/>
		<path class="st0" d="M-729.1,394.3c34.2-3.3,68.6-0.2,102.9-1.6c-0.3,5.2-0.6,10.4-0.8,15.7c-36,3.3-72,7.6-108.1,7.9
			C-733.2,408.9-731.1,401.6-729.1,394.3z"/>
	</g>
	<g>
		<path class="st21" d="M-845.8,111.9c12.1-5.2,24.3-11.7,37.8-11.3c13.5-0.2,25.5,6.6,37.4,11.9c1.4,9.6,2.3,19.3,2.6,29
			c-11.9-9.9-24.3-21.8-40.5-23.4c-16.5,1.1-28.7,13.7-40.7,23.6C-848.6,131.7-847.4,121.8-845.8,111.9z"/>
	</g>
	<g>
		<path class="st22" d="M-896.5,274.5c21.3-34.9,33.3-74.3,43.1-113.7c0.2,31.9,3.1,64.4-4.8,95.7c-6.5,28.8-22.1,57.3-48.3,72.5
			c-19.3,11.7-42.5,12.8-64.4,13.2c15-19,34.4-33.9,54-47.9C-909.3,288.7-901.7,282.6-896.5,274.5z"/>
		<path class="st22" d="M-762.4,164.7c10.2,38,22.6,75.8,42.7,109.8c6.9,10.7,17.5,17.8,27.6,25.2c17.2,12.4,33.6,26,46.9,42.7
			c-20-0.5-40.8-1.3-59.1-10.5c-23-11.3-39.4-33-47.9-56.8C-765.7,239.8-763.5,201.6-762.4,164.7z"/>
		<path class="st22" d="M-846.8,288.3c16.7-3.8,34-1.9,50.9-2.3c10.7,0.7,22.8-1.2,32.2,5.2c2.5,7.8-6.1,10.6-12.2,10.9
			c-17.5,1.5-35,0.9-52.5,0.8c-8-0.6-17.1,0.2-23.8-5.2C-853.7,292.7-851.9,289.5-846.8,288.3z"/>
		<path class="st22" d="M-846.8,328.7c16.7-3.8,34-1.9,50.9-2.3c10.8,0.6,22.7-1,32.3,5.2c2.4,7.8-6.1,10.6-12.3,10.9
			c-17.5,1.5-35,0.9-52.5,0.8c-8-0.6-17.2,0.4-23.7-5.2C-853.7,332.9-852,329.8-846.8,328.7z"/>
		<path class="st22" d="M-882.1,351.5c4.3-0.3,8.7-0.6,13-0.9c1.8,29.6,0,59.2,1.1,88.8c-12.4,0.5-8.7-16.6-13.1-24.8
			c-2-7.4-3.9-14.8-5.8-22.1c-34.2-3.2-68.6-0.2-102.9-1.6c0.4-6.2,0.9-12.4,1.4-18.6c33.4,3.7,67.2,4.8,100.7,1.7
			C-885.8,366.5-883.9,359-882.1,351.5z"/>
		<path class="st22" d="M-746.9,350.6c4.4,0.2,8.7,0.6,13,0.9c1.9,7.5,3.8,15,5.6,22.5c33.5,3.1,67.3,1.9,100.6-1.7
			c0.6,6.2,1,12.4,1.5,18.6c-34.3,1.4-68.7-1.7-102.9,1.6c-2,7.3-4,14.7-6.1,22c-4.5,8.2-0.8,24.6-12.7,25
			C-747,410-748.8,380.3-746.9,350.6z"/>
		<path class="st22" d="M-846.8,368.9c16.7-3.7,34-1.9,50.9-2.3c10.7,0.7,22.8-1.2,32.2,5.3c2.7,7.9-6.1,10.4-12.2,10.9
			c-17.4,1.5-35,0.9-52.5,0.8c-8.1-0.5-17.1,0-24-5.1C-853.5,373.5-851.7,370.3-846.8,368.9z"/>
		<path class="st22" d="M-843.8,404.8c4.8-5.7,12.8-5,19.5-5.7c15.6-0.4,31.6-1.3,47.1,1.9c11.5,6.3,4.8,22.5,1.2,32.1
			c-6.9-5.6-12.9-12.7-20.7-17.1c-7.3-1.6-15-1.6-22.3,0c-7.9,4.4-13.9,11.5-20.8,17.2C-843.6,424.1-846.4,414.4-843.8,404.8z"/>
	</g>
	<g>
		<g>
			<path class="st15" d="M-494.7,256c5-5,10-10,15-15c8.8,8.7,17.6,17.5,26.4,26.4c-5,5-10,10-15,15
				C-477.1,273.5-485.9,264.8-494.7,256z"/>
			<path class="st15" d="M-472.1,233.3c3.7-3.7,7.5-7.5,11.3-11.3c8.8,8.8,17.6,17.6,26.4,26.4c-3.7,3.8-7.5,7.5-11.3,11.3
				C-454.5,251-463.3,242.2-472.1,233.3z"/>
			<path class="st15" d="M-453.2,214.5c3.7-3.7,7.5-7.5,11.3-11.3c8.8,8.8,17.6,17.6,26.4,26.4c-3.7,3.7-7.5,7.5-11.3,11.3
				C-435.7,232.1-444.5,223.4-453.2,214.5z"/>
			<path class="st15" d="M-434.4,195.7c5-5,10-10,15-15c8.8,8.8,17.6,17.6,26.4,26.4c-5,5-10,10-15,15
				C-416.9,213.3-425.7,204.5-434.4,195.7z"/>
			<path class="st15" d="M-351.6,112.9c5-5,10-10,15-15c8.8,8.7,17.6,17.5,26.4,26.4c-5,5-10,10-15,15
				C-334,130.5-342.8,121.7-351.6,112.9z"/>
			<path class="st15" d="M-329,90.3c3.7-3.7,7.5-7.5,11.3-11.3c8.8,8.8,17.6,17.5,26.4,26.4c-3.7,3.8-7.5,7.5-11.3,11.3
				C-311.4,107.9-320.2,99.1-329,90.3z"/>
			<path class="st15" d="M-310.1,71.4c3.7-3.7,7.5-7.5,11.3-11.3c8.8,8.8,17.6,17.5,26.4,26.4c-3.7,3.8-7.5,7.5-11.3,11.3
				C-292.6,89-301.4,80.3-310.1,71.4z"/>
			<path class="st15" d="M-291.3,52.6c5-5,10-10,15-15c8.8,8.8,17.6,17.6,26.4,26.4c-5,5-10.1,10-15.1,15
				C-273.8,70.2-282.6,61.4-291.3,52.6z"/>
			<path class="st15" d="M-381.7,173.2c7.6-7.6,15.1-15.1,22.7-22.7c3.7,3.8,7.5,7.6,11.2,11.4c0.9,1,2.8,2.8,3.7,3.8
				c-7.5,7.5-14.9,15-22.4,22.5c-0.9-0.9-2.9-2.8-3.8-3.8C-374.1,180.6-377.9,176.9-381.7,173.2z"/>
			<path class="st15" d="M-460.8,289.9c5-5,10.1-10,15.1-15c8.8,8.7,17.6,17.5,26.4,26.4c-5,5-10,10-15,15
				C-443.2,307.4-452,298.6-460.8,289.9z"/>
			<path class="st15" d="M-438.2,267.3c3.7-3.8,7.5-7.5,11.3-11.3c8.8,8.8,17.6,17.5,26.4,26.4c-3.7,3.7-7.5,7.5-11.3,11.3
				C-420.6,284.9-429.4,276.1-438.2,267.3z"/>
			<path class="st15" d="M-419.3,248.4c3.7-3.8,7.5-7.5,11.3-11.3c8.8,8.8,17.6,17.5,26.4,26.4c-3.7,3.7-7.5,7.5-11.3,11.3
				C-401.8,266-410.6,257.3-419.3,248.4z"/>
			<path class="st15" d="M-400.5,229.6c5-5,10-10,15-15c8.8,8.7,17.6,17.5,26.4,26.4c-5,5-10,10-15,15
				C-382.9,247.2-391.7,238.4-400.5,229.6z"/>
			<path class="st15" d="M-317.7,146.7c5-5,10-10,15.1-15c8.8,8.8,17.6,17.6,26.3,26.4c-5,5-10,10-15,15
				C-300.1,164.4-308.9,155.6-317.7,146.7z"/>
			<path class="st15" d="M-295.1,124.2c3.7-3.8,7.5-7.5,11.3-11.3c8.8,8.8,17.6,17.5,26.4,26.4c-3.7,3.7-7.5,7.5-11.3,11.3
				C-277.5,141.8-286.3,133-295.1,124.2z"/>
			<path class="st15" d="M-276.2,105.3c3.7-3.8,7.5-7.5,11.3-11.3c8.8,8.8,17.6,17.5,26.4,26.4c-3.7,3.7-7.5,7.5-11.3,11.3
				C-258.7,122.9-267.5,114.2-276.2,105.3z"/>
			<path class="st15" d="M-257.4,86.5c5-5,10-10,15-15c8.8,8.8,17.6,17.6,26.4,26.4c-5,5-10,10-15,15
				C-239.9,104.1-248.6,95.3-257.4,86.5z"/>
			<path class="st15" d="M-336.5,414.2c5-5,10-10,15-15c8.8,8.7,17.6,17.5,26.4,26.4c-5,5-10,10.1-15,15.1
				C-318.9,431.8-327.7,423-336.5,414.2z"/>
			<path class="st15" d="M-313.8,391.6c3.7-3.7,7.5-7.5,11.3-11.3c8.8,8.8,17.6,17.6,26.4,26.4c-3.7,3.7-7.5,7.5-11.3,11.2
				C-296.3,409.2-305.1,400.4-313.8,391.6z"/>
			<path class="st15" d="M-295,372.7c3.7-3.7,7.5-7.5,11.3-11.3c8.8,8.8,17.6,17.6,26.4,26.4c-3.7,3.7-7.5,7.5-11.3,11.3
				C-277.5,390.4-286.3,381.6-295,372.7z"/>
			<path class="st15" d="M-276.2,353.9c5-5,10-10,15-15c8.8,8.8,17.6,17.5,26.4,26.4c-5,5-10,10-15,15
				C-258.6,371.5-267.4,362.7-276.2,353.9z"/>
			<path class="st15" d="M-193.3,271.1c5-5,10-10,15-15c8.8,8.7,17.6,17.5,26.4,26.4c-5,5-10,10-15,15
				C-175.8,288.7-184.6,279.9-193.3,271.1z"/>
			<path class="st15" d="M-170.7,248.5c3.7-3.7,7.5-7.5,11.3-11.3c8.8,8.7,17.6,17.6,26.4,26.4c-3.7,3.7-7.5,7.5-11.3,11.3
				C-153.2,266.1-162,257.3-170.7,248.5z"/>
			<path class="st15" d="M-151.9,229.6c3.7-3.7,7.5-7.5,11.3-11.3c8.8,8.8,17.6,17.5,26.4,26.4c-3.7,3.7-7.5,7.5-11.3,11.3
				C-134.4,247.3-143.2,238.5-151.9,229.6z"/>
			<path class="st15" d="M-133.1,210.8c5-5,10-10,15-15c8.8,8.8,17.6,17.6,26.4,26.4c-5,5-10.1,10-15.1,15
				C-115.6,228.4-124.4,219.6-133.1,210.8z"/>
			<path class="st15" d="M-208.3,346.3c7.5-7.5,14.9-15,22.4-22.5c0.9,0.9,2.9,2.8,3.8,3.8c3.8,3.7,7.6,7.5,11.4,11.2
				c-7.6,7.6-15.1,15.1-22.7,22.7c-3.7-3.8-7.5-7.6-11.2-11.4C-205.5,349.2-207.4,347.3-208.3,346.3z"/>
			<path class="st15" d="M-302.5,448.1c5-5,10.1-10,15-15c8.8,8.8,17.6,17.6,26.4,26.4c-5,5-10,10-15,15
				C-285,465.7-293.8,456.9-302.5,448.1z"/>
			<path class="st15" d="M-279.9,425.5c3.7-3.8,7.5-7.5,11.3-11.3c8.8,8.8,17.6,17.5,26.4,26.4c-3.7,3.7-7.5,7.5-11.3,11.3
				C-262.4,443.1-271.2,434.3-279.9,425.5z"/>
			<path class="st15" d="M-261.1,406.6c3.7-3.8,7.5-7.5,11.3-11.2c8.8,8.7,17.6,17.5,26.4,26.4c-3.7,3.7-7.5,7.5-11.3,11.3
				C-243.6,424.3-252.4,415.5-261.1,406.6z"/>
			<path class="st15" d="M-242.3,387.8c5-5,10-10.1,15-15c8.8,8.7,17.6,17.5,26.4,26.4c-5,5-10,10-15,15
				C-224.7,405.4-233.5,396.6-242.3,387.8z"/>
			<path class="st15" d="M-159.4,305c5-5,10-10,15-15c8.8,8.7,17.6,17.5,26.4,26.4c-5,5-10,10-15,15
				C-141.9,322.6-150.7,313.8-159.4,305z"/>
			<path class="st15" d="M-136.8,282.4c3.7-3.8,7.5-7.5,11.3-11.3c8.8,8.8,17.6,17.5,26.4,26.4c-3.7,3.7-7.5,7.5-11.3,11.3
				C-119.3,300-128.1,291.2-136.8,282.4z"/>
			<path class="st15" d="M-118,263.5c3.7-3.8,7.5-7.5,11.3-11.3c8.8,8.8,17.6,17.5,26.4,26.4c-3.7,3.7-7.5,7.5-11.3,11.3
				C-100.5,281.2-109.3,272.4-118,263.5z"/>
			<path class="st15" d="M-99.2,244.7c5-5,10-10,15-15.1c8.8,8.8,17.6,17.6,26.4,26.4c-5,5-10,10-15,15
				C-81.6,262.4-90.4,253.6-99.2,244.7z"/>
		</g>
		<g>
			<path class="st9" d="M-479.6,240.9c2.5-2.5,5-5,7.6-7.6c8.8,8.8,17.5,17.6,26.4,26.4c3.8-3.7,7.5-7.5,11.3-11.3
				c-8.8-8.8-17.5-17.6-26.4-26.4c2.5-2.5,5-5,7.6-7.6c8.8,8.8,17.5,17.6,26.4,26.4c3.8-3.7,7.5-7.5,11.3-11.3
				c-8.8-8.8-17.5-17.6-26.4-26.4c2.5-2.5,5-5,7.6-7.6c8.7,8.8,17.5,17.6,26.4,26.4c5-5,10.1-10,15-15c7.6-7.5,15.1-15.1,22.7-22.7
				c0.9,0.9,2.9,2.8,3.8,3.8c7.5-7.5,15-15,22.4-22.5c-0.9-0.9-2.8-2.8-3.7-3.8c7.5-7.6,15.1-15.1,22.7-22.7c5-5,10-10,15-15
				c-8.8-8.8-17.6-17.6-26.4-26.4c2.5-2.5,5-5,7.6-7.6c8.8,8.8,17.5,17.6,26.4,26.4c3.8-3.7,7.5-7.5,11.3-11.3
				c-8.8-8.8-17.5-17.6-26.4-26.4c2.5-2.5,5-5,7.6-7.6c8.8,8.8,17.5,17.6,26.4,26.4c3.8-3.7,7.5-7.5,11.3-11.3
				c-8.8-8.8-17.5-17.6-26.4-26.4c2.5-2.5,5-5,7.6-7.6c8.7,8.8,17.5,17.6,26.4,26.4c5-5,10-10,15.1-15c2.5,2.5,5,5,7.5,7.5
				c-5,5-10,10.1-15,15c8.8,8.8,17.5,17.6,26.4,26.4c-2.5,2.5-5,5-7.6,7.6c-8.8-8.8-17.5-17.6-26.4-26.4c-3.8,3.7-7.5,7.5-11.3,11.3
				c8.8,8.8,17.5,17.6,26.4,26.4c-2.5,2.5-5,5-7.6,7.6c-8.8-8.8-17.5-17.6-26.4-26.4c-3.8,3.7-7.5,7.5-11.3,11.3
				c8.8,8.8,17.5,17.6,26.4,26.4c-2.5,2.5-5,5-7.6,7.6c-8.7-8.8-17.5-17.6-26.3-26.4c-5,5-10.1,10-15.1,15
				c-10,10-20.1,20.1-30.1,30.1c5,5,10,10,15,15c1-0.9,2.9-2.7,3.9-3.6c8.8,8.8,17.5,17.5,26.3,26.3c5,5,10.1,10.1,15.1,15.1
				c3.7,3.7,7.5,7.5,11.3,11.3c5,5,10.1,10.1,15.1,15.1c3.7,3.7,7.5,7.5,11.3,11.3c5,5,10,10,15.1,15.1c8.8,8.8,17.5,17.5,26.3,26.3
				c-0.9,1-2.7,2.9-3.6,3.9c5,5,10,10,15,15c10.1-10.1,20.1-20.1,30.1-30.1c5-5,10-10,15-15c-8.7-8.8-17.5-17.6-26.4-26.4
				c2.5-2.5,5-5,7.6-7.6c8.8,8.8,17.5,17.6,26.4,26.4c3.8-3.7,7.5-7.5,11.3-11.3c-8.8-8.8-17.6-17.6-26.4-26.4c2.5-2.5,5-5,7.6-7.6
				c8.8,8.8,17.5,17.6,26.4,26.4c3.7-3.7,7.5-7.5,11.3-11.3c-8.8-8.8-17.5-17.6-26.4-26.4c2.5-2.5,5-5,7.6-7.6
				c8.7,8.8,17.5,17.6,26.4,26.4c5-5,10-10,15.1-15c2.5,2.5,5,5,7.5,7.5c-5,5-10,10.1-15,15.1c8.7,8.8,17.5,17.6,26.4,26.4
				c-2.5,2.5-5,5-7.6,7.6c-8.8-8.8-17.6-17.6-26.4-26.4c-3.8,3.7-7.5,7.5-11.3,11.3c8.8,8.8,17.5,17.6,26.4,26.4
				c-2.5,2.5-5,5-7.6,7.6c-8.8-8.8-17.5-17.6-26.4-26.4c-3.8,3.7-7.5,7.5-11.3,11.3c8.8,8.8,17.5,17.6,26.4,26.4
				c-2.5,2.5-5,5-7.6,7.6c-8.7-8.8-17.5-17.6-26.4-26.4c-5,5-10.1,10-15,15c-7.6,7.5-15.1,15.1-22.7,22.7c-0.9-0.9-2.9-2.8-3.8-3.8
				c-7.5,7.5-15,15-22.4,22.5c0.9,0.9,2.8,2.8,3.7,3.8c-7.6,7.6-15.1,15.1-22.7,22.7c-5,5-10,10-15,15c8.7,8.8,17.5,17.6,26.4,26.4
				c-2.5,2.5-5,5-7.6,7.6c-8.8-8.8-17.5-17.6-26.4-26.4c-3.8,3.7-7.5,7.5-11.3,11.2c8.7,8.8,17.5,17.6,26.4,26.4
				c-2.5,2.5-5,5-7.6,7.6c-8.8-8.8-17.5-17.6-26.4-26.4c-3.8,3.7-7.5,7.5-11.3,11.3c8.8,8.8,17.5,17.6,26.4,26.4
				c-2.5,2.5-5,5-7.6,7.6c-8.7-8.8-17.5-17.6-26.4-26.4c-5,5-10,10-15,15c-2.5-2.5-5-5-7.5-7.5c5-5,10-10.1,15-15.1
				c-8.7-8.8-17.5-17.6-26.4-26.4c2.5-2.5,5-5,7.6-7.6c8.7,8.8,17.5,17.6,26.4,26.4c3.8-3.7,7.5-7.5,11.3-11.2
				c-8.8-8.8-17.5-17.6-26.4-26.4c2.5-2.5,5-5,7.6-7.6c8.8,8.8,17.5,17.6,26.4,26.4c3.7-3.7,7.5-7.5,11.3-11.3
				c-8.8-8.8-17.5-17.6-26.4-26.4c2.5-2.5,5-5,7.6-7.6c8.7,8.8,17.6,17.6,26.4,26.4c5-5,10-10,15-15c10.1-10.1,20.1-20.1,30.1-30.1
				c-5-5-10-10-15-15c-1,0.9-2.9,2.7-3.9,3.6c-8.8-8.8-17.6-17.6-26.4-26.4c-22.5-22.5-45.1-45.1-67.6-67.6
				c-8.8-8.8-17.6-17.6-26.4-26.4c0.9-1,2.7-2.9,3.6-3.9c-5-5-10-10-15-15c-10.1,10.1-20.1,20.1-30.1,30.1c-5,5-10,10-15,15
				c8.7,8.8,17.5,17.6,26.4,26.4c-2.5,2.5-5,5-7.6,7.6c-8.8-8.8-17.5-17.6-26.4-26.4c-3.8,3.7-7.5,7.5-11.3,11.3
				c8.8,8.8,17.5,17.6,26.4,26.4c-2.5,2.5-5,5-7.6,7.6c-8.8-8.8-17.5-17.6-26.4-26.4c-3.8,3.7-7.5,7.5-11.3,11.3
				c8.8,8.8,17.5,17.6,26.4,26.4c-2.5,2.5-5,5-7.6,7.6c-8.7-8.8-17.5-17.6-26.4-26.4c-5,5-10.1,10-15.1,15c-2.5-2.5-5-5-7.5-7.5
				c5-5,10-10.1,15-15C-462,258.5-470.8,249.7-479.6,240.9z"/>
		</g>
		<g>
			<path class="st17" d="M-302.6,214.6c5.1-5,10.1-10.1,15.2-15.1c5,5,9.9,10.1,14.9,15.1c-5,5-10,10-15,15
				C-292.5,224.6-297.6,219.6-302.6,214.6z"/>
			<path class="st17" d="M-217.1,144.8c2-6.7,12.7-2.2,10,3.9C-209.2,155.5-220.4,151-217.1,144.8z"/>
			<path class="st17" d="M-366.5,316.2c7.5-7.5,15-15,22.5-22.5c10.1,9.9,20.2,20,30.1,30.1c-7.5,7.5-15,15-22.5,22.5
				C-346.6,336.4-356.6,326.3-366.5,316.2z"/>
			<path class="st17" d="M-238.5,188.2c7.5-7.6,15-15,22.5-22.5c10.2,9.9,20.2,20,30.1,30.1c-7.5,7.6-15,15.1-22.5,22.5
				C-218.6,208.4-228.6,198.3-238.5,188.2z"/>
			<path class="st17" d="M-206.1,156.1c2.9-8.1,15.4,0.2,8.8,5.6C-201.1,166.4-207.7,161.3-206.1,156.1z"/>
			<path class="st17" d="M-276.2,240.9c5-5,10.1-10,15.1-15c5,5,10,10,15,15c-5,5-10,10.1-15,15.1C-266.2,251-271.2,246-276.2,240.9
				z"/>
			<path class="st17" d="M-195,167.4c1.9-2.6,6.7-5.2,9.1-1.6c3.8,2.6-1.1,7.3-1.1,10.6C-190.4,174.1-196,172.6-195,167.4z"/>
			<path class="st17" d="M-298.8,293.6c3.7-3.8,7.5-7.5,11.2-11.2c8.8,8.8,17.7,17.5,26.4,26.3c-3.8,3.8-7.6,7.5-11.4,11.3
				C-281.3,311.3-290,302.4-298.8,293.6z"/>
			<path class="st17" d="M-183.4,178.9c2.4-6.9,12.7-2.6,10.2,3.9C-176,189-185.7,185.3-183.4,178.9z"/>
			<path class="st17" d="M-249.9,267.3c5-5,10-10,15-15c5.1,5,10.1,9.9,15.2,14.9c-5,5.1-10.1,10.1-15.1,15.2
				C-239.8,277.3-244.8,272.3-249.9,267.3z"/>
			<path class="st17" d="M-172.3,189.9c3.1-6.1,12.8-2.5,10.3,4.1C-164.8,200.6-174.3,196.3-172.3,189.9z"/>
		</g>
		<g>
			<path class="st6" d="M-419.1,331.2c11-11.4,22.2-22.5,33.6-33.4c6.4,6.1,12.8,12.1,18.9,18.4c10,10.1,20,20.1,30.1,30.1
				c6.3,6.2,12.4,12.5,18.5,18.9c-10.9,11.5-22.1,22.8-33.6,33.7C-374.2,376.5-396.9,354.1-419.1,331.2z"/>
			<path class="st6" d="M-362.7,274.7c14.9-15.1,29.9-30.2,45.1-45c22.5,22.5,45.1,45.1,67.6,67.6c-3.7,3.8-7.4,7.6-11.2,11.4
				c-8.8-8.8-17.6-17.6-26.4-26.3c-3.8,3.7-7.5,7.5-11.2,11.2c8.7,8.8,17.5,17.6,26.3,26.4c-7.3,7.7-14.9,15.1-22.6,22.4
				c-6.3-6.2-12.6-12.3-18.8-18.6c-10-10.1-20-20.2-30.1-30.1C-350.4,287.5-356.6,281.1-362.7,274.7z"/>
			<path class="st6" d="M-287.4,199.5c9.8-10.1,19.7-20.2,30-29.7c6.4,6.1,12.7,12.2,18.9,18.4c9.9,10.1,20,20.2,30.1,30.1
				c6.3,6.2,12.5,12.5,18.6,18.8c-9.7,10.3-19.8,20.2-29.8,30c-5-5-10.1-9.9-15.2-14.9c-5,5-10,10-15,15c-3.8-3.8-7.5-7.5-11.3-11.3
				c5-5,10-10.1,15-15.1c-5-5-10.1-10-15-15c-5,5-10.1,10-15.1,15c-3.8-3.8-7.5-7.5-11.3-11.3c5-5,10-10,15-15
				C-277.5,209.6-282.4,204.5-287.4,199.5z"/>
			<g>
				<path class="st6" d="M-234.5,146.9c10.8-11.6,22-22.8,33.5-33.7c22.8,22.1,45.2,44.8,67.6,67.4c-10.9,11.5-22.2,22.7-33.7,33.6
					c-6.3-6.1-12.6-12.2-18.8-18.5c-10-10.1-20-20.2-30.1-30.1C-222.3,159.5-228.4,153.2-234.5,146.9z M-217.1,144.8
					c-3.3,6.3,7.9,10.7,10,3.9C-204.5,142.6-215.1,138.1-217.1,144.8z M-206.1,156.1c-1.7,5.1,5,10.3,8.8,5.6
					C-190.7,156.3-203.1,148-206.1,156.1z M-195,167.4c-1,5.2,4.6,6.8,8,9c0-3.3,4.9-8,1.1-10.6C-188.3,162.1-193.1,164.7-195,167.4
					z M-183.4,178.9c-2.3,6.3,7.5,10.1,10.2,3.9C-170.7,176.3-181.1,172-183.4,178.9z M-172.3,189.9c-2,6.4,7.5,10.7,10.3,4.1
					C-159.5,187.4-169.2,183.8-172.3,189.9z"/>
			</g>
		</g>
	</g>
	<g>
		<g>
			<g>
				<path class="st19" d="M222.3,96.5c7.8-12,18.3-25.7,33.9-26.4c15.4,1,25.7,14.4,33.5,26.4c16.5,26.4,17.3,58.7,17.3,88.8
					c-0.1,32.6-2.3,97.8-2.3,97.8s-3.3,72.1-9.3,104.6c-13.2-6.7-26.2-13.8-39.4-20.6c-13.2,6.8-26.2,13.8-39.3,20.6
					c-6.1-32.5-9.4-104.5-9.4-104.5S205,218,205,185.3C205,155.2,205.8,123,222.3,96.5z M225.8,144c6.3,8.2,20.2-16.8,30.2-16.7
					s22.6,24,30,17.8c8.3-8.3-18.8-30.7-30-30.7C244.8,114.5,217.9,135.1,225.8,144z"/>
			</g>
		</g>
		<g>
			<path class="st17" d="M149.1,177.6c1.6-11.1,16.4-16.5,24.9-9.3c9.4,7.6,5.4,21.1,6,31.5c-10.5,6.6-20.8,13.3-31.4,19.6
				C148.8,205.6,147.8,191.6,149.1,177.6z"/>
			<path class="st17" d="M338.2,168.2c8.5-7.1,23.4-1.5,24.8,9.5c1.2,13.9,0.3,27.8,0.4,41.7c-10.6-6.4-21-13.1-31.4-19.6
				C332.5,189.4,328.6,175.8,338.2,168.2z"/>
			<path class="st17" d="M92.2,222c1.5-11.1,16.2-16.6,24.7-9.5c7.4,5.1,6.3,14.9,6.5,22.7c-10.4,6.7-21,13.2-31.7,19.5
				C91.8,243.7,91,232.8,92.2,222z"/>
			<path class="st17" d="M395,212.5c8.5-7.2,23.3-1.7,24.8,9.4c1.1,10.8,0.3,21.8,0.4,32.7c-10.7-6.3-21.2-12.8-31.7-19.5
				C388.8,227.4,387.7,217.7,395,212.5z"/>
		</g>
		<g>
			<path class="st23" d="M180,199.9c8.2-5.1,16.5-10,24.9-14.6c0,32.6,2.2,65.3,2.3,97.9c-3.9,1.5-7.7,2.9-11.6,4.3
				c-37.3,5.9-76.1,10.3-109.4,29.6c-5.8,4-14.5,5.8-18.5-1.7c-2.4-14-1.5-28.5-0.6-42.6c5.6-8.8,16.4-12.5,24.7-18.2
				c10.7-6.3,21.2-12.8,31.7-19.5c8.3-5.3,16.8-10.5,25.2-15.6C159.2,213.2,169.6,206.5,180,199.9z"/>
			<path class="st23" d="M304.7,283.1c0-32.6,2.3-65.2,2.3-97.8c8.4,4.6,16.8,9.4,24.9,14.6c10.5,6.5,20.8,13.3,31.4,19.6
				c8.4,5.1,16.9,10.3,25.2,15.6c10.5,6.7,21,13.2,31.7,19.5c8.2,5.1,17.1,9.3,23.9,16.3c3.1,12.8,1.3,26.5,1.2,39.6
				c0.4,5.6-4.4,9.4-9.3,10.7c-8.8-2.5-16.4-7.8-24.8-11.5c-29.9-13.4-62.8-16.9-94.8-22.3C312.5,286.2,308.6,284.6,304.7,283.1z"/>
		</g>
		<g>
			<path class="st9" d="M216.7,387.8c13.2-6.8,26.2-13.8,39.3-20.6c13.2,6.8,26.2,13.9,39.4,20.6c12,6.2,23.9,12.7,36,18.7
				c0.8,10.2,0.6,20.4,0,30.6c-25.4-7.5-50-17.5-75.4-24.9c-25.4,7.4-50,17.4-75.4,24.9c-0.5-10.2-0.8-20.4,0.1-30.6
				C192.8,400.5,204.6,393.9,216.7,387.8z"/>
		</g>
		<path class="st24" d="M196.5,289.5"/>
	</g>
	<g>
		<g>
			<path class="st6" d="M747.3,83.3c18.2-14.8,44.7-17.9,66.1-8.3c34.6,18.2,58,56.6,59.6,95.4c-57.2,0.2-114.4,0.2-171.5,0
				C702.3,136.5,720.8,104.1,747.3,83.3z"/>
			<g>
				<path class="st6" d="M698.8,183.3c40,0,80-0.2,120,0c-0.1,8-0.2,16-0.4,24.1c-15.8,7-32.3,19.8-31.2,39
					c-1.1,19.2,15.3,32,31.1,39c0.5,16.5,0.5,33,0.3,49.4c-31.5,0.2-63-0.4-94.5,0.2c-0.1,6.3-0.3,12.5-0.4,18.8
					c-8.1-0.2-16.1-0.5-24.2-1c-0.4-5.9-0.8-11.9-1-17.9c-0.2-8.5-0.2-17-0.2-25.5c0-8.4,0.2-16.8,0.3-25.1
					c18.8,0.1,37.7,0.1,56.5-0.2c0.4-23.1,0.4-46.1,0-69.2c-18.8-0.3-37.7-0.3-56.6-0.2C698.5,204.3,698.5,193.8,698.8,183.3z
					 M721.3,303.3c-7.6,3.6-2.7,15.4,5.1,12.5C734.1,312.2,729.3,300.5,721.3,303.3z M746.6,303.3c-7.7,3.5-2.8,15.4,5.1,12.5
					C759.4,312.3,754.5,300.4,746.6,303.3z M771.9,303.3c-7.7,3.5-2.7,15.4,5.2,12.5C784.7,312.2,779.8,300.5,771.9,303.3z
					 M797.1,303.3c-7.6,3.6-2.7,15.4,5.2,12.5C810,312.2,805.1,300.5,797.1,303.3z"/>
			</g>
			<g>
				<path class="st6" d="M831.2,183.3c14.7-0.2,29.4-0.2,44.1,0c0.6,42.1,0,84.1,0.3,126.2c0,8.5,0.1,17-0.1,25.5
					c-0.1,5.9-0.6,11.9-1,17.9c-8.1,0.4-16.1,0.8-24.2,0.9c-0.1-6.2-0.3-12.5-0.4-18.7c-6.2-0.1-12.4-0.2-18.6-0.2
					c-0.2-16.5-0.2-33,0.3-49.5c15.8-7,32.2-19.8,31.1-39c1.1-19.2-15.4-32-31.2-39C831.4,199.3,831.3,191.3,831.2,183.3z
					 M847.7,303.4c-7.7,3.4-2.7,15.4,5.1,12.4C860.6,312.4,855.6,300.4,847.7,303.4z"/>
			</g>
		</g>
		<g>
			<g>
				<path class="st15" d="M698.3,170.4l3,0c57.2,0.2,114.3,0.2,171.5,0h3c-0.2,4.3-0.3,8.5-0.5,12.8c-14.7-0.1-29.4-0.1-44.1,0
					c0.1,8,0.2,16,0.3,24c15.9,7,32.3,19.8,31.2,39c1.1,19.2-15.3,32-31.1,39c-0.5,16.5-0.5,33-0.3,49.5c-4.2,0-8.5-0.1-12.7-0.1
					c0.2-16.5,0.2-33-0.3-49.4c-15.8-7-32.2-19.8-31.1-39c-1.1-19.2,15.4-32,31.2-39c0.2-8,0.3-16,0.4-24.1c-40-0.3-80-0.1-120,0
					C698.6,179,698.5,174.7,698.3,170.4z M816.7,222.5c-19.1,5.3-22.8,34.1-6.3,44.6c14.6,10.9,38.5,0.8,39.6-17.8
					C853.1,231.5,833.5,216,816.7,222.5z"/>
			</g>
		</g>
		<g>
			<path class="st17" d="M698.7,214.7c18.9,0,37.7,0,56.6,0.2c0.4,23.1,0.4,46.1,0,69.2c-18.8,0.3-37.7,0.3-56.5,0.2
				c-0.1-4.4-0.1-8.8-0.2-13.1c14.5-0.6,29-0.7,43.5-0.4c0-1.2,0-3.5,0-4.6c-14.5,0.3-29,0.2-43.5-0.4c0-4.5,0-9.1,0-13.6
				c14.5-0.6,29-0.7,43.5-0.3c0-1.2,0-3.5,0-4.6c-14.5,0.3-29,0.2-43.5-0.4c0-4.5,0-9.1,0-13.6c14.5-0.6,29-0.7,43.5-0.3
				c0-1.2,0-3.5,0-4.6c-14.5,0.3-29,0.2-43.5-0.4C698.7,223.5,698.7,219.1,698.7,214.7z"/>
			<path class="st17" d="M724.2,335.1c31.5-0.6,63,0,94.5-0.2c4.2,0,8.4,0,12.7,0.1c6.2,0,12.4,0.1,18.6,0.2
				c0.1,6.2,0.3,12.5,0.4,18.7c-42.2-0.3-84.4-0.3-126.6,0C723.9,347.6,724.1,341.3,724.2,335.1z"/>
		</g>
		<g>
			<path class="st9" d="M816.7,222.5c16.8-6.5,36.4,8.9,33.4,26.8c-1.1,18.6-25,28.7-39.6,17.8C793.9,256.6,797.6,227.9,816.7,222.5
				z"/>
			<path class="st9" d="M667,316c10.5-2.3,21-4.4,31.5-6.5c0,8.5,0,17,0.2,25.5c-10.5-2.2-21-4.3-31.5-6.6
				C667.1,324.3,667,320.2,667,316z"/>
			<path class="st9" d="M875.7,309.5c10.5,2.1,21,4.2,31.5,6.5c0,4.1,0,8.2,0,12.4c-10.5,2.3-21.1,4.4-31.7,6.6
				C875.7,326.5,875.7,318,875.7,309.5z"/>
			<path class="st9" d="M723.8,353.9c42.2-0.3,84.4-0.3,126.6,0c0,4.2,0,8.4,0,12.6c11.2,0.2,22.7-0.9,33.8,0.8
				c20.8,17.9,38.9,38.9,58.9,57.8c5,5.2,13,4.1,19.3,6.6c2.8,3.3,2.2,8.4-2.2,10c-12.1,1.2-24.5,1.3-36.6,0
				c-8.7-3.8-0.6-11.5,4.5-14.1c-15.2-14.2-29.4-29.4-44.3-43.9c-6-7-16-4.3-24.1-4.6c-7.2-0.6-11.7,7.1-18.9,6.4
				c-15.8,0.4-31.6-0.2-47.4,0c-0.1,14.3-0.1,28.7,0,43c4.9,1.9,15.2,2.1,12.5,10c-4.2,6.1-12.6,3.3-18.8,4.2
				c-6.3-0.8-14.5,1.8-18.9-4.1c-2.4-7.9,7.5-8.2,12.5-10c0.1-14.3,0.1-28.7,0-43c-15.8-0.3-31.6,0.3-47.4-0.1
				c-7.2,0.8-11.7-7-19-6.4c-8,0.3-18-2.3-24,4.6c-14.9,14.5-29.1,29.8-44.3,43.9c5.2,2.6,13.1,10.1,4.6,14.1
				c-11.2,1.3-22.7,1-34,0.4c-5.5,0.6-9-6.5-4.8-10.3c6.3-2.6,14.2-1.4,19.2-6.6c20-18.9,38.1-39.8,58.9-57.9
				c11.2-1.6,22.6-0.5,33.8-0.7C723.8,362.3,723.8,358.1,723.8,353.9z"/>
		</g>
		<g>
			<path class="st25" d="M721.3,303.3c8-2.9,12.8,8.9,5.1,12.5C718.6,318.7,713.7,306.9,721.3,303.3z"/>
			<path class="st25" d="M746.6,303.3c7.9-2.9,12.8,9,5.1,12.5C743.8,318.7,738.9,306.9,746.6,303.3z"/>
			<path class="st25" d="M771.9,303.3c8-2.8,12.8,8.8,5.2,12.5C769.1,318.8,764.2,306.9,771.9,303.3z"/>
			<path class="st25" d="M797.1,303.3c7.9-2.8,12.8,8.9,5.2,12.5C794.4,318.7,789.5,307,797.1,303.3z"/>
			<path class="st25" d="M847.7,303.4c7.9-3,12.8,9,5.1,12.4C845,318.8,840,306.8,847.7,303.4z"/>
		</g>
	</g>
	<g>
		<g>
			<g>
				<path class="st6" d="M1262.5,84c28.8-0.5,57.6-0.6,86.4,0.1c0.6,6.1,1,12.4-1.4,18.2c-1.8,0.1-5.5,0-5.5,0l-0.3,60.5
					c0,0,81.4,204.7,87,217.3c11.8,26.1,15,45.9-6.6,47.3c-78.4,1.4-156.9-0.6-235.2,1c-14.9-4.5-13.4-26.2-8-36
					c1.8-4.4,66.4-166.6,66.4-166.6l26.1-63.5l-0.3-59.2c0,0-4-0.6-6-1C1260.7,97.2,1263.3,90,1262.5,84z M1261.5,217.8
					c-3,7.3-7,14.4-7.3,22.4c7.9-0.2,15.9-0.3,23.8-0.4c1,2.1,2,4.1,3,6.2c-10.4,3.5-21.7-0.6-31.9,2.7c-5.3,7.1-7.2,16.5-9,25.2
					c8.7,2.5,18-1.1,26.8,1.9c-0.2,2-0.5,4-0.7,6c-14,1.5-35-5.5-37.2,14.5c-9.6,17.4,15.5,11.7,25.3,12.5c0,2,0.1,4,0.1,5.9
					c-18.9-2.8-40.2,0.2-41.3,23.4c1.1,1.2,2.3,2.4,3.4,3.5c9.3,0.1,18.8-1,28,1.4c-0.2,1.1-0.6,3.4-0.8,4.6
					c-12,0.9-24.6-2-36.1,2.8c-2.8,7.6-6,15-8.5,22.6c10,2.4,20.3,1.1,30.5,1.6c1.2,2.2,2.4,4.5,3.7,6.8c-17.3,3.5-43.5-6.8-44.9,19
					c2,6.5,7,12.4,14.4,12.2c70.1,0.2,140.2-0.2,210.3,0.2c3.6-3.2,6.7-6.7,9.4-10.7c-8.5-26.7-21.8-51.7-30.7-78.3
					c-0.5-0.6-1.6-1.8-2.1-2.4c-15.9-35.8-26.9-73.9-45.8-108C1316.3,214.4,1289,218.2,1261.5,217.8z"/>
			</g>
			<path class="st26" d="M1388.8,220.8"/>
			<path class="st26" d="M1406.5,270.4"/>
			<path class="st6" d="M1385.5,220.8c0,0,8.1-0.6,10.5-0.7c1.6-16,0.5-32.2,0.6-48.2c-2.8-0.1-5.7-0.2-8.5-0.3
				c-0.1-4.5-0.2-8.9-0.2-13.3c26.3-0.4,52.7-0.6,79,0.1c0,3.6,0,7.2,0,10.7c-2.8,0.2-5.5,0.3-8.3,0.5c-1.1,16.8-1.5,50.3-1.5,50.3
				s54.1,11.7,64,69.9c9.7,56.8-19.2,105.3-66,106.1l-4.4-13.6c50.5-10.1,74.3-84.8,36.2-121.2c-17.1,0.7-64.6,23.7-80.5,9.3"/>
			<path class="st6" d="M1118.5,170.8c41.5-3.6,83.5-0.6,125.2-1.6c0.1,2.8,0.3,8.3,0.3,8.3l-38,89.4h-64.6c0,0-0.1,11-0.1,16.6
				c11.3,0.1,22.6,0.1,33.9,0c1.6,2.5,3.2,5,4.8,7.4c-12.5,4-25.7,1.9-38.6,2.4c0,4.8,0,9.7,0,14.6c12.7,0.4,25.6-1.4,38,2.1
				c0,1.1-0.1,3.4-0.1,4.5c-1,1.1-2,2.3-3.1,3.4c-11.6,0.1-23.2,0-34.8,0.1c0,4.7,0,9.4,0,14.1c10.7,0.1,32,0.1,32,0.1l7.2,0l-4,9.9
				c0,0-23.6,0-35.1,0.1c-0.1,4.7-0.2,14.2-0.2,14.2l30.4,0.3l-4,9.7c0,0-17.4,0.1-26.1,0.1c-0.1,7.1-0.2,21.3-0.2,21.3l17,0.2
				l-5.3,14.8h-25.1c0,0-0.7-143.1,0.5-214.4c-3.6-0.9-7.3-1.8-10.9-2.7c-0.1-1.5-0.4-4.7-0.5-6.2
				C1120.7,179.1,1117.7,173.4,1118.5,170.8z"/>
			<path class="st26" d="M1454.5,274.1c11.8,0,23.7-0.2,35.5,0.1c0.1,1.1,0.2,3.2,0.3,4.3c-0.9-0.1-2.8-0.2-3.7-0.2l0.5,1.8
				c-10.8-0.1-21.6-0.1-32.4,0C1454.7,278.1,1454.6,276.1,1454.5,274.1z"/>
			<path class="st26" d="M1454.6,293.1c11.9,0.1,23.7-0.4,35.6,0.3c0,2,0,4,0,5.9c-11.8,0.4-23.7,0.2-35.6,0.2
				C1454.6,297.3,1454.6,295.2,1454.6,293.1z"/>
			<path class="st26" d="M1454.7,312.5c10.8,0,21.7,0.1,32.5-0.1l-0.7,2c0.9-0.1,2.8-0.2,3.7-0.3c-0.1,1-0.2,3.1-0.3,4.2
				c-11.8,0.3-23.7,0.1-35.5,0.2C1454.6,316.5,1454.7,314.5,1454.7,312.5z"/>
			<path class="st26" d="M1453.4,331.6c12.2-0.5,24.4-0.4,36.6,0c0,2.4-0.1,4.9-0.1,7.3c-12.2,0.3-24.3,0.3-36.5,0
				C1453.5,336.5,1453.5,334.1,1453.4,331.6z"/>
		</g>
		<g>
			<g>
				<path class="st15" d="M1261.5,217.8c27.5,0.4,54.8-3.5,82.3-4.1c18.9,34.1,29.8,72.2,45.8,108c0.5,0.6,1.6,1.8,2.1,2.4
					c9,26.6,22.2,51.5,30.7,78.3c-0.3,7-3.4,10.6-9.4,10.7c-70.1-0.4-140.2,0-210.3-0.2c-7.3,0.2-12.3-5.7-14.4-12.2
					c1.4-25.8,27.6-15.5,44.9-19c-1.2-2.3-2.4-4.5-3.7-6.8c-10.2-0.5-20.5,0.8-30.5-1.6c2.5-7.7,5.8-15.1,8.5-22.6
					c11.4-4.7,24-1.8,36.1-2.8c0.2-1.1,0.6-3.4,0.8-4.6c-9.2-2.4-18.7-1.3-28-1.4c-1.1-1.2-2.3-2.4-3.4-3.5
					c1-23.3,22.3-26.2,41.3-23.4c0-2-0.1-4-0.1-5.9c-9.7-0.8-34.8,4.8-25.3-12.5c2.2-20,23.2-13,37.2-14.5c0.2-2,0.5-4,0.7-6
					c-8.8-3-18.1,0.6-26.8-1.9c1.8-8.7,3.7-18.1,9-25.2c10.2-3.3,21.6,0.8,31.9-2.7c-1-2.1-2-4.1-3-6.2c-7.9,0.1-15.9,0.2-23.8,0.4
					C1254.5,232.2,1258.5,225.1,1261.5,217.8z M1314.7,274.9c-11.8,3.3-17.1,20-8.5,29c7.2,10.9,25.8,8.4,30.9-3.3
					C1345,287.3,1329.3,269,1314.7,274.9z M1283.5,319.9c-14.3,3.8-6.2,25.5,7.4,20.8C1303.7,335.8,1295.7,316.5,1283.5,319.9z
					 M1344.3,330.3c-37.4,2.5-29.3,63.9,7.3,57C1386.6,382.4,1380.5,324.7,1344.3,330.3z"/>
			</g>
		</g>
		<g>
			<g>
				<path class="st25" d="M1447.4,262.6c19.7-12.1,39.6-1.4,39.6-1.4c38.2,36.4,14.3,111.1-36.2,121.2c0,0-44.2-109.1-44.3-111.9
					C1412.8,269.8,1427.7,274.8,1447.4,262.6z M1454.5,274.1c0.1,2,0.2,4,0.3,6c10.8-0.1,21.6-0.1,32.4,0l-0.5-1.8
					c0.9,0.1,2.8,0.2,3.7,0.2c-0.1-1.1-0.2-3.2-0.3-4.3C1478.2,274,1466.3,274.2,1454.5,274.1z M1454.6,293.1c0,2.1,0,4.3,0,6.4
					c11.9,0,23.7,0.2,35.6-0.2c0-2,0-4,0-5.9C1478.3,292.6,1466.4,293.2,1454.6,293.1z M1454.7,312.5c-0.1,2-0.2,4-0.2,6
					c11.8,0,23.7,0.2,35.5-0.2c0.1-1,0.2-3.1,0.3-4.2c-0.9,0.1-2.8,0.2-3.7,0.3l0.7-2C1476.4,312.6,1465.6,312.5,1454.7,312.5z
					 M1453.4,331.6c0,2.4,0,4.9,0,7.3c12.2,0.3,24.3,0.3,36.5,0c0-2.4,0.1-4.9,0.1-7.3C1477.9,331.2,1465.7,331.2,1453.4,331.6z"/>
			</g>
		</g>
		<g>
			<path class="st1" d="M1141.4,266.9h64.6l-25.5,65.3c0,0-28.5,0-39.2-0.1c0-4.7,0-9.4,0-14.1c11.6-0.1,23.2,0,34.8-0.1
				c1-1.1,2-2.3,3.1-3.4c0-1.1,0.1-3.4,0.1-4.5c-12.4-3.5-25.3-1.7-38-2.1c0-4.9,0-9.7,0-14.6c12.9-0.5,26.1,1.5,38.6-2.4
				c-1.6-2.5-3.2-5-4.8-7.4c-11.3,0-22.6,0.1-33.9,0C1141.3,278,1141.4,266.9,1141.4,266.9z"/>
			<path class="st1" d="M1171.6,356.7l-30.4-0.3c0,0,0.2-9.4,0.2-14.2c11.6-0.1,35.1-0.1,35.1-0.1"/>
			<path class="st27" d="M1171.6,356.7"/>
			<path class="st27" d="M1176.1,342.1"/>
			<path class="st1" d="M1141.4,366.5c8.7,0,17.4-0.1,26.1-0.1c-1.5,2.4-9.3,21.6-9.3,21.6l-17-0.2
				C1141.2,387.8,1141.3,373.6,1141.4,366.5z"/>
		</g>
		<g>
			<path class="st9" d="M1314.7,274.9c14.6-5.9,30.2,12.4,22.4,25.7c-5.1,11.7-23.7,14.2-30.9,3.3
				C1297.7,294.9,1303,278.2,1314.7,274.9z"/>
			<path class="st9" d="M1283.5,319.9c12.2-3.3,20.1,16,7.4,20.8C1277.3,345.4,1269.3,323.7,1283.5,319.9z"/>
			<path class="st9" d="M1344.3,330.3c36.3-5.6,42.3,52.1,7.3,57C1315,394.2,1306.8,332.8,1344.3,330.3z"/>
		</g>
		<path class="st26" d="M1245.3,225.8"/>
		<path class="st26" d="M1245.3,225.8"/>
	</g>
</g>
<g id="nyt_x5F_exporter_x5F_info" class="st28">
	<text transform="matrix(1 0 0 1 -3192 512)" style="display:inline;"><tspan x="0" y="0" style="font-family:'MyriadPro-Regular'; font-size:12px;">&lt;nyt_prefs&gt;</tspan><tspan x="0" y="14.4" style="font-family:'MyriadPro-Regular'; font-size:12px;">  &lt;nyt_prefix&gt;&lt;/nyt_prefix&gt;</tspan><tspan x="0" y="28.8" style="font-family:'MyriadPro-Regular'; font-size:12px;">  &lt;nyt_suffix&gt;&lt;/nyt_suffix&gt;</tspan><tspan x="0" y="43.2" style="font-family:'MyriadPro-Regular'; font-size:12px;">  &lt;nyt_base_path&gt;~/Desktop/Earth&lt;/nyt_base_path&gt;</tspan><tspan x="0" y="57.6" style="font-family:'MyriadPro-Regular'; font-size:12px;">  &lt;nyt_scaling&gt;100&lt;/nyt_scaling&gt;</tspan><tspan x="0" y="72" style="font-family:'MyriadPro-Regular'; font-size:12px;">  &lt;nyt_transparency&gt;true&lt;/nyt_transparency&gt;</tspan><tspan x="0" y="86.4" style="font-family:'MyriadPro-Regular'; font-size:12px;">  &lt;nyt_format&gt;PNG 24&lt;/nyt_format&gt;</tspan><tspan x="0" y="100.8" style="font-family:'MyriadPro-Regular'; font-size:12px;">  &lt;nyt_export_code&gt;artboards&lt;/nyt_export_code&gt;</tspan><tspan x="0" y="115.2" style="font-family:'MyriadPro-Regular'; font-size:12px;">&lt;/nyt_prefs&gt;</tspan></text>
</g>
</svg>
