<?xml version="1.0" encoding="utf-8"?>
<!-- Generator: Adobe Illustrator 19.0.0, SVG Export Plug-In . SVG Version: 6.00 Build 0)  -->
<svg version="1.1" id="Layer_1" xmlns="http://www.w3.org/2000/svg" xmlns:xlink="http://www.w3.org/1999/xlink" x="0px" y="0px"
	 viewBox="0 0 512 512" style="enable-background:new 0 0 512 512;" xml:space="preserve">
<style type="text/css">
	.st0{fill:none;stroke:#8797CA;stroke-width:106.52;stroke-miterlimit:10;}
	.st1{fill:none;stroke:#566181;stroke-width:11;stroke-miterlimit:10;}
	.st2{fill:none;stroke:#BDC3C7;stroke-width:42;stroke-miterlimit:10;}
	.st3{fill:#FFFFFF;stroke:#EDF0F1;stroke-width:96;stroke-miterlimit:10;}
	.st4{fill:#FFFFFF;stroke:#BDC3C7;stroke-width:17;stroke-miterlimit:10;}
	.st5{fill:#FFFFFF;stroke:#BDC3C7;stroke-width:21;stroke-miterlimit:10;}
	.st6{fill:none;stroke:#566181;stroke-width:21;stroke-miterlimit:10;}
	.st7{fill:none;stroke:#8797CA;stroke-width:21;stroke-miterlimit:10;}
	.st8{fill:#EBEEEF;}
	.st9{fill:#EDF0F1;}
	.st10{fill:none;stroke:#EDF0F1;stroke-width:96;stroke-miterlimit:10;}
</style>
<line class="st0" x1="293.6" y1="436.9" x2="233.4" y2="376.7"/>
<line class="st1" x1="312.6" y1="417.9" x2="252.4" y2="357.7"/>
<line class="st1" x1="293.6" y1="436.9" x2="233.4" y2="376.7"/>
<line class="st1" x1="274.7" y1="455.7" x2="214.6" y2="395.5"/>
<line class="st0" x1="135.2" y1="278.5" x2="75" y2="218.3"/>
<line class="st1" x1="154.2" y1="259.5" x2="94" y2="199.3"/>
<line class="st1" x1="135.2" y1="278.5" x2="75" y2="218.3"/>
<line class="st1" x1="116.3" y1="297.3" x2="56.2" y2="237.2"/>
<line class="st2" x1="180.5" y1="331.1" x2="331.2" y2="180.5"/>
<line class="st3" x1="203.2" y1="308.6" x2="308.6" y2="203.1"/>
<line class="st0" x1="278.3" y1="135.2" x2="218.2" y2="75"/>
<line class="st4" x1="265.3" y1="314.3" x2="239" y2="287.9"/>
<line class="st5" x1="236.8" y1="222" x2="252.1" y2="206.6"/>
<line class="st5" x1="263.4" y1="248.6" x2="278.7" y2="233.3"/>
<line class="st5" x1="289.7" y1="274.9" x2="305.3" y2="259.3"/>
<line class="st6" x1="316.1" y1="316" x2="195.6" y2="195.5"/>
<line class="st1" x1="338.6" y1="338.5" x2="177" y2="176.9"/>
<path class="st7" d="M308.6,104.9"/>
<path class="st7" d="M248.4,44.8"/>
<line class="st1" x1="67.5" y1="285.8" x2="286" y2="67.5"/>
<line class="st1" x1="297.3" y1="116.2" x2="237.2" y2="56"/>
<line class="st1" x1="278.3" y1="135.2" x2="218.2" y2="75"/>
<line class="st1" x1="259.5" y1="154" x2="199.3" y2="93.8"/>
<path class="st1" d="M93.7,199.4"/>
<path class="st1" d="M154.1,259.5"/>
<path class="st1" d="M74.7,218.4"/>
<path class="st1" d="M135.2,278.4"/>
<line class="st0" x1="436.7" y1="293.6" x2="376.6" y2="233.4"/>
<path class="st7" d="M466.9,263.3"/>
<path class="st7" d="M406.8,203.2"/>
<line class="st1" x1="225.9" y1="444.2" x2="444.4" y2="225.9"/>
<line class="st1" x1="455.7" y1="274.5" x2="395.6" y2="214.4"/>
<line class="st1" x1="436.7" y1="293.6" x2="376.6" y2="233.4"/>
<line class="st1" x1="417.9" y1="312.4" x2="357.7" y2="252.2"/>
<path class="st1" d="M252.1,357.8"/>
<path class="st1" d="M312.5,417.9"/>
<path class="st1" d="M233.1,376.8"/>
<path class="st1" d="M293.6,436.8"/>
<path class="st1" d="M214.2,395.7"/>
<path class="st1" d="M274.4,456"/>
<path class="st1" d="M55.8,237.3"/>
<path class="st1" d="M116.1,297.6"/>
<path class="st1" d="M395.9,214.3"/>
<path class="st1" d="M456.3,274.5"/>
<path class="st1" d="M376.9,233.4"/>
<path class="st1" d="M437.4,293.3"/>
<path class="st1" d="M358,252.2"/>
<path class="st1" d="M418.2,312.5"/>
<path class="st1" d="M252.6,358"/>
<path class="st1" d="M313,418.1"/>
<path class="st1" d="M233.5,377"/>
<path class="st1" d="M294.1,437"/>
<path class="st1" d="M214.7,395.9"/>
<path class="st1" d="M274.9,456.2"/>
<line class="st7" x1="331.6" y1="354" x2="354.2" y2="331.4"/>
<line class="st7" x1="158.3" y1="180.7" x2="180.9" y2="158.2"/>
<line class="st8" x1="331.2" y1="180.5" x2="365.1" y2="146.6"/>
<line class="st9" x1="180.5" y1="331.1" x2="146.6" y2="365"/>
<line class="st10" x1="331.2" y1="180.5" x2="365.1" y2="146.6"/>
<line class="st10" x1="180.5" y1="331.1" x2="146.6" y2="365"/>
</svg>
